<svg preserveAspectRatio="none" width="100%" height="100%" overflow="visible" style="display: block;" viewBox="0 0 11.8123 10.7558" fill="none" xmlns="http://www.w3.org/2000/svg">
<g id="GL Symbol White">
<path d="M5.33195 3.42668C5.33195 3.45166 5.3264 3.47634 5.31571 3.49891L3.3469 7.65566C3.30765 7.73853 3.34176 7.83758 3.42372 7.87871L4.8743 8.60668C5.00463 8.67209 4.99624 8.86086 4.86061 8.91445L0.231318 10.7435C0.0886105 10.7999 -0.0491885 10.652 0.0171404 10.5136L5.01103 0.0960478C5.08867 -0.0659018 5.33195 -0.0106031 5.33195 0.168993V3.42668Z" fill="var(--fill-0, #F5F5F5)" fill-opacity="0.9"/>
<path d="M6.48034 3.42668C6.48034 3.45166 6.48588 3.47634 6.49658 3.49891L8.46539 7.65566C8.50464 7.73853 8.47053 7.83758 8.38857 7.87871L6.93799 8.60668C6.80766 8.67209 6.81605 8.86086 6.95167 8.91445L11.581 10.7435C11.7237 10.7999 11.8615 10.652 11.7951 10.5136L6.80125 0.0960471C6.72362 -0.0659025 6.48034 -0.0106032 6.48034 0.168993V3.42668Z" fill="var(--fill-0, #F5F5F5)" fill-opacity="0.9"/>
<path d="M5.72811 5.20204C5.7885 5.07543 5.96804 5.07351 6.03113 5.1988L7.00405 7.13088C7.04623 7.21465 7.01201 7.31675 6.92786 7.35818L5.95312 7.83807C5.90484 7.86183 5.84813 7.86115 5.80044 7.83624L4.88086 7.35582C4.80037 7.31377 4.7676 7.21556 4.80669 7.1336L5.72811 5.20204Z" fill="var(--fill-0, #F5F5F5)" fill-opacity="0.9"/>
</g>
</svg>
