<svg preserveAspectRatio="none" width="100%" height="100%" overflow="visible" style="display: block;" viewBox="0 0 360 181" fill="none" xmlns="http://www.w3.org/2000/svg">
<g id="Group 9">
<path id="Vector 6 - Vector 8 - 667" d="M3.69381e-06 63.5L32.1348 63.5C32.9476 63.5 33.741 63.7476 34.4096 64.2098L71.4085 89.7902C72.077 90.2524 72.8705 90.5 73.6832 90.5L146 90.5" stroke="url(#paint0_linear_365_293)" stroke-dasharray="2 2"/>
<path id="Vector 6 - Vector 8 - 222" d="M2.51415e-06 41.5L51.8911 41.5C53.1525 41.5 54.34 42.095 55.0951 43.1054L86.3263 84.8945C87.0815 85.905 88.269 86.5 89.5304 86.5L146 86.5" stroke="url(#paint1_linear_365_293)" stroke-dasharray="2 2"/>
<path id="Vector 6" d="M8.92827e-08 0.500017L65.0924 0.500002C66.5736 0.500002 67.9336 1.3186 68.627 2.62757L109.811 80.3724C110.504 81.6814 111.864 82.5 113.346 82.5L146 82.5" stroke="url(#paint2_linear_365_293)" stroke-dasharray="2 2"/>
<path id="Vector 6 - Vector 8 - 667_2" d="M4.15257e-06 114.5L57.7538 114.5C59.0101 114.5 60.1934 113.91 60.9491 112.906L73.6097 96.0938C74.3655 95.0902 75.5488 94.5 76.8051 94.5L146 94.5" stroke="url(#paint3_linear_365_293)"/>
<path id="Vector 6 - Vector 8 - 896" d="M360 39.5L292.174 39.5C291.068 39.5 290.013 39.9572 289.256 40.7632L243.781 89.2368C243.025 90.0427 241.969 90.5 240.864 90.5L182 90.5" stroke="url(#paint4_linear_365_293)"/>
<path id="Vector 6_2" d="M8.92819e-08 180.5L46.0948 180.5C47.6614 180.5 49.0839 179.585 49.734 178.16L85.0043 100.84C85.6544 99.4146 87.0769 98.5 88.6435 98.5L146 98.5" stroke="url(#paint5_linear_365_293)" stroke-dasharray="2 2"/>
</g>
<defs>
<linearGradient id="paint0_linear_365_293" x1="4.57856e-06" y1="77" x2="146" y2="77" gradientUnits="userSpaceOnUse">
<stop/>
<stop offset="1" stop-color="#F5F5F5"/>
</linearGradient>
<linearGradient id="paint1_linear_365_293" x1="3.98872e-06" y1="64" x2="146" y2="64" gradientUnits="userSpaceOnUse">
<stop/>
<stop offset="1" stop-color="#F5F5F5"/>
</linearGradient>
<linearGradient id="paint2_linear_365_293" x1="2.77629e-06" y1="41.5" x2="146" y2="41.5" gradientUnits="userSpaceOnUse">
<stop/>
<stop offset="1" stop-color="#F5F5F5"/>
</linearGradient>
<linearGradient id="paint3_linear_365_293" x1="4.80793e-06" y1="104.5" x2="146" y2="104.5" gradientUnits="userSpaceOnUse">
<stop/>
<stop offset="1" stop-color="#F5F5F5"/>
</linearGradient>
<linearGradient id="paint4_linear_365_293" x1="182" y1="65" x2="360" y2="65" gradientUnits="userSpaceOnUse">
<stop stop-color="#F5F5F5"/>
<stop offset="1"/>
</linearGradient>
<linearGradient id="paint5_linear_365_293" x1="2.77629e-06" y1="139.5" x2="146" y2="139.5" gradientUnits="userSpaceOnUse">
<stop/>
<stop offset="1" stop-color="#F5F5F5"/>
</linearGradient>
</defs>
</svg>
