<svg preserveAspectRatio="none" width="100%" height="100%" overflow="visible" style="display: block;" viewBox="0 0 337.387 181" fill="none" xmlns="http://www.w3.org/2000/svg">
<g id="Group 7">
<path id="Vector 6 - Vector 8 - 667" d="M337.387 63.5L262.345 63.5C261.665 63.5 260.996 63.6736 260.401 64.0043L213.667 89.9957C213.072 90.3264 212.403 90.5 211.723 90.5L155.887 90.5" stroke="url(#paint0_linear_365_376)" stroke-dasharray="2 2"/>
<path id="Vector 6 - Vector 8 - 222" d="M337.387 41.5L251.701 41.5C250.589 41.5 249.527 41.9628 248.77 42.7774L209.336 85.2226C208.579 86.0372 207.517 86.5 206.405 86.5L155.887 86.5" stroke="url(#paint1_linear_365_376)" stroke-dasharray="2 2"/>
<path id="Vector 6" d="M337.387 0.50001L247.428 0.5C245.962 0.5 244.614 1.3016 243.914 2.58923L201.599 80.4107C200.899 81.6984 199.551 82.5 198.085 82.5L155.887 82.5" stroke="url(#paint2_linear_365_376)" stroke-dasharray="2 2"/>
<path id="Vector 6 - Vector 8 - 667_2" d="M337.387 114.5L263.921 114.5C263.386 114.5 262.856 114.393 262.363 114.184L216.548 94.8157C216.056 94.6074 215.526 94.5 214.991 94.5L155.887 94.5" stroke="url(#paint3_linear_365_376)"/>
<path id="Vector 6 - Vector 8 - 896" d="M4.51808e-09 39.5L2.88675 36.6133L5.7735 39.5L2.88675 42.3868L4.51808e-09 39.5ZM102.601 89.0109L102.99 88.697L102.601 89.0109ZM60.7629 39.5L60.7629 40L60.7629 39.5ZM63.8766 40.9891L63.4874 41.303L63.8766 40.9891ZM2.88675 39.5L2.88675 39L3.92025 39L3.92025 39.5L3.92025 40L2.88675 40L2.88675 39.5ZM5.98726 39.5L5.98726 39L8.05426 39L8.05426 39.5L8.05426 40L5.98726 40L5.98726 39.5ZM10.1213 39.5L10.1213 39L12.1883 39L12.1883 39.5L12.1883 40L10.1213 40L10.1213 39.5ZM14.2553 39.5L14.2553 39L16.3223 39L16.3223 39.5L16.3223 40L14.2553 40L14.2553 39.5ZM18.3893 39.5L18.3893 39L20.4563 39L20.4563 39.5L20.4563 40L18.3893 40L18.3893 39.5ZM22.5233 39.5L22.5233 39L24.5903 39L24.5903 39.5L24.5903 40L22.5233 40L22.5233 39.5ZM26.6573 39.5L26.6573 39L28.7243 39L28.7243 39.5L28.7243 40L26.6573 40L26.6573 39.5ZM30.7913 39.5L30.7913 39L32.8583 39L32.8583 39.5L32.8583 40L30.7913 40L30.7913 39.5ZM34.9253 39.5L34.9253 39L36.9923 39L36.9923 39.5L36.9923 40L34.9253 40L34.9253 39.5ZM39.0593 39.5L39.0593 39L41.1263 39L41.1263 39.5L41.1263 40L39.0593 40L39.0593 39.5ZM43.1933 39.5L43.1933 39L45.2603 39L45.2603 39.5L45.2603 40L43.1933 40L43.1933 39.5ZM47.3273 39.5L47.3273 39L49.3943 39L49.3943 39.5L49.3943 40L47.3273 40L47.3273 39.5ZM51.4614 39.5L51.4614 39L53.5284 39L53.5284 39.5L53.5284 40L51.4614 40L51.4614 39.5ZM55.5954 39.5L55.5954 39L57.6624 39L57.6624 39.5L57.6624 40L55.5954 40L55.5954 39.5ZM59.7294 39.5L59.7294 39L60.7629 39L60.7629 39.5L60.7629 40L59.7294 40L59.7294 39.5ZM60.7629 39.5L60.7629 39C61.101 39 61.4346 39.038 61.7583 39.1114L61.6477 39.5991L61.5371 40.0867C61.2854 40.0296 61.0259 40 60.7629 40L60.7629 39.5ZM63.2441 40.3625L63.5542 39.9703C63.8145 40.1762 64.0536 40.4121 64.2658 40.6752L63.8766 40.9891L63.4874 41.303C63.3223 41.0982 63.1364 40.9148 62.934 40.7547L63.2441 40.3625ZM63.8766 40.9891L64.2658 40.6752L64.9112 41.4756L64.522 41.7895L64.1328 42.1033L63.4874 41.303L63.8766 40.9891ZM65.8128 43.3902L66.202 43.0763L67.4929 44.6771L67.1036 44.9909L66.7144 45.3048L65.4236 43.7041L65.8128 43.3902ZM68.3944 46.5916L68.7837 46.2778L70.0745 47.8785L69.6853 48.1924L69.296 48.5062L68.0052 46.9055L68.3944 46.5916ZM70.9761 49.7931L71.3653 49.4792L72.6561 51.08L72.2669 51.3938L71.8777 51.7077L70.5868 50.107L70.9761 49.7931ZM73.5577 52.9946L73.9469 52.6807L75.2377 54.2814L74.8485 54.5953L74.4593 54.9091L73.1685 53.3084L73.5577 52.9946ZM76.1393 56.196L76.5285 55.8821L77.8193 57.4829L77.4301 57.7967L77.0409 58.1106L75.7501 56.5099L76.1393 56.196ZM78.7209 59.3975L79.1101 59.0836L80.401 60.6843L80.0117 60.9982L79.6225 61.312L78.3317 59.7113L78.7209 59.3975ZM81.3026 62.5989L81.6918 62.285L82.9826 63.8858L82.5934 64.1996L82.2041 64.5135L80.9133 62.9128L81.3026 62.5989ZM83.8842 65.8004L84.2734 65.4865L85.5642 67.0872L85.175 67.4011L84.7858 67.7149L83.495 66.1142L83.8842 65.8004ZM86.4658 69.0018L86.855 68.6879L88.1458 70.2887L87.7566 70.6025L87.3674 70.9164L86.0766 69.3157L86.4658 69.0018ZM89.0474 72.2033L89.4366 71.8894L90.7274 73.4901L90.3382 73.804L89.949 74.1178L88.6582 72.5171L89.0474 72.2033ZM91.629 75.4047L92.0183 75.0908L93.3091 76.6916L92.9199 77.0054L92.5306 77.3193L91.2398 75.7186L91.629 75.4047ZM94.2107 78.6062L94.5999 78.2923L95.8907 79.893L95.5015 80.2069L95.1122 80.5207L93.8214 78.92L94.2107 78.6062ZM96.7923 81.8076L97.1815 81.4937L98.4723 83.0945L98.0831 83.4083L97.6939 83.7222L96.4031 82.1215L96.7923 81.8076ZM99.3739 85.0091L99.7631 84.6952L101.054 86.2959L100.665 86.6098L100.275 86.9236L98.9847 85.3229L99.3739 85.0091ZM101.956 88.2105L102.345 87.8967L102.99 88.697L102.601 89.0109L102.212 89.3247L101.566 88.5244L101.956 88.2105ZM102.601 89.0109L102.99 88.697C103.155 88.9018 103.341 89.0852 103.544 89.2453L103.233 89.6375L102.923 90.0296C102.663 89.8238 102.424 89.5879 102.212 89.3247L102.601 89.0109ZM104.83 90.4009L104.94 89.9133C105.192 89.9704 105.452 90 105.715 90L105.715 90.5L105.715 91C105.377 91 105.043 90.962 104.719 90.8885L104.83 90.4009ZM105.715 90.5L105.715 90L106.68 90L106.68 90.5L106.68 91L105.715 91L105.715 90.5ZM108.609 90.5L108.609 90L110.539 90L110.539 90.5L110.539 91L108.609 91L108.609 90.5ZM112.469 90.5L112.469 90L114.398 90L114.398 90.5L114.398 91L112.469 91L112.469 90.5ZM116.328 90.5L116.328 90L118.258 90L118.258 90.5L118.258 91L116.328 91L116.328 90.5ZM120.187 90.5L120.187 90L122.117 90L122.117 90.5L122.117 91L120.187 91L120.187 90.5ZM124.047 90.5L124.047 90L125.976 90L125.976 90.5L125.976 91L124.047 91L124.047 90.5ZM127.906 90.5L127.906 90L129.836 90L129.836 90.5L129.836 91L127.906 91L127.906 90.5ZM131.766 90.5L131.766 90L133.695 90L133.695 90.5L133.695 91L131.766 91L131.766 90.5ZM135.625 90.5L135.625 90L137.555 90L137.555 90.5L137.555 91L135.625 91L135.625 90.5ZM139.484 90.5L139.484 90L141.414 90L141.414 90.5L141.414 91L139.484 91L139.484 90.5ZM143.344 90.5L143.344 90L145.273 90L145.273 90.5L145.273 91L143.344 91L143.344 90.5ZM147.203 90.5L147.203 90L149.133 90L149.133 90.5L149.133 91L147.203 91L147.203 90.5ZM151.063 90.5L151.063 90L152.992 90L152.992 90.5L152.992 91L151.063 91L151.063 90.5ZM154.922 90.5L154.922 90L155.887 90L155.887 90.5L155.887 91L154.922 91L154.922 90.5Z" fill="url(#paint4_linear_365_376)"/>
<path id="Vector 6_2" d="M337.387 180.5L247.428 180.5C245.962 180.5 244.614 179.698 243.914 178.411L201.599 100.589C200.899 99.3016 199.551 98.5 198.085 98.5L155.887 98.5" stroke="url(#paint5_linear_365_376)" stroke-dasharray="2 2"/>
</g>
<defs>
<linearGradient id="paint0_linear_365_376" x1="337.387" y1="77" x2="155.887" y2="77" gradientUnits="userSpaceOnUse">
<stop/>
<stop offset="1" stop-color="#F5F5F5"/>
</linearGradient>
<linearGradient id="paint1_linear_365_376" x1="337.387" y1="64" x2="155.887" y2="64" gradientUnits="userSpaceOnUse">
<stop/>
<stop offset="1" stop-color="#F5F5F5"/>
</linearGradient>
<linearGradient id="paint2_linear_365_376" x1="337.387" y1="41.5" x2="155.887" y2="41.5" gradientUnits="userSpaceOnUse">
<stop/>
<stop offset="1" stop-color="#F5F5F5"/>
</linearGradient>
<linearGradient id="paint3_linear_365_376" x1="337.387" y1="104.5" x2="155.887" y2="104.5" gradientUnits="userSpaceOnUse">
<stop/>
<stop offset="1" stop-color="#F5F5F5"/>
</linearGradient>
<linearGradient id="paint4_linear_365_376" x1="155.887" y1="65" x2="2.88675" y2="65" gradientUnits="userSpaceOnUse">
<stop stop-color="#F5F5F5"/>
<stop offset="1"/>
</linearGradient>
<linearGradient id="paint5_linear_365_376" x1="337.387" y1="139.5" x2="155.887" y2="139.5" gradientUnits="userSpaceOnUse">
<stop/>
<stop offset="1" stop-color="#F5F5F5"/>
</linearGradient>
</defs>
</svg>
