<svg preserveAspectRatio="none" width="100%" height="100%" overflow="visible" style="display: block;" viewBox="0 0 563.877 448.614" fill="none" xmlns="http://www.w3.org/2000/svg">
<g id="Group 6">
<path id="Polygon 7" d="M281.939 75.0464L152.704 0.433013M281.939 75.0464L411.173 149.66M281.939 75.0464L152.704 149.66M281.939 75.0464L411.173 0.433013M281.939 75.0464V224.273M411.173 149.66V224.273V298.887M411.173 149.66L563.627 61.6403L281.939 224.273M411.173 149.66L281.939 224.273M411.173 298.887L281.939 373.5M411.173 298.887L281.939 224.273M281.939 373.5L152.704 298.887M281.939 373.5L172.8 436.511C167.291 439.692 169.548 448.114 175.909 448.114H387.968C394.329 448.114 396.586 439.692 391.077 436.511L281.939 373.5ZM281.939 373.5V224.273M152.704 298.887V149.66M152.704 298.887L281.939 224.273M152.704 149.66L281.939 224.273M0.25 386.906L281.939 224.273M0.25 61.6403L281.939 224.273M563.627 386.906L281.939 224.273" stroke="url(#paint0_radial_365_351)" stroke-dasharray="2 2"/>
<g id="GL Badge">
<g id="Polygon 2" filter="url(#filter0_iiii_365_351)">
<path d="M276.343 167.813C279.805 165.814 284.072 165.814 287.535 167.813L328.036 191.197C331.499 193.196 333.632 196.891 333.632 200.89V247.657C333.632 251.655 331.499 255.35 328.036 257.35L287.535 280.733C284.072 282.732 279.805 282.732 276.343 280.733L235.841 257.35C232.378 255.35 230.245 251.655 230.245 247.657V200.89C230.245 196.891 232.378 193.196 235.841 191.197L276.343 167.813Z" fill="url(#paint1_linear_365_351)"/>
</g>
<g id="GL Symbol White">
<path d="M279.083 212.833C279.083 212.957 279.055 213.08 279.002 213.192L269.209 233.869C269.013 234.281 269.183 234.774 269.591 234.978L276.806 238.599C277.455 238.925 277.413 239.864 276.738 240.13L253.711 249.228C253.001 249.509 252.316 248.773 252.646 248.085L277.486 196.266C277.873 195.46 279.083 195.735 279.083 196.628V212.833Z" fill="var(--fill-0, #F5F5F5)" fill-opacity="0.9"/>
<path d="M284.795 212.833C284.795 212.957 284.823 213.08 284.876 213.192L294.669 233.869C294.864 234.281 294.695 234.774 294.287 234.978L287.072 238.599C286.423 238.925 286.465 239.864 287.14 240.13L310.167 249.228C310.877 249.509 311.562 248.773 311.232 248.085L286.391 196.266C286.005 195.46 284.795 195.735 284.795 196.628V212.833Z" fill="var(--fill-0, #F5F5F5)" fill-opacity="0.9"/>
<path d="M281.053 221.664C281.354 221.034 282.247 221.025 282.561 221.648L287.4 231.259C287.61 231.675 287.44 232.183 287.021 232.389L282.173 234.776C281.933 234.894 281.65 234.891 281.413 234.767L276.839 232.377C276.439 232.168 276.276 231.68 276.47 231.272L281.053 221.664Z" fill="var(--fill-0, #F5F5F5)" fill-opacity="0.9"/>
</g>
</g>
<g id="Community Badge">
<g id="Polygon 2_2" filter="url(#filter2_iiii_365_351)">
<path d="M406.294 251.06C409.18 249.394 412.735 249.394 415.621 251.06L449.372 270.546C452.258 272.212 454.036 275.291 454.036 278.623V317.596C454.036 320.928 452.258 324.007 449.372 325.673L415.621 345.159C412.735 346.825 409.18 346.825 406.294 345.159L372.543 325.673C369.657 324.007 367.879 320.928 367.879 317.596V278.623C367.879 275.291 369.657 272.212 372.543 270.546L406.294 251.06Z" fill="url(#paint2_linear_365_351)"/>
</g>
<path id="Vector" d="M403.613 287.617C403.613 289.935 401.734 291.814 399.416 291.814C397.098 291.814 395.219 289.935 395.219 287.617C395.219 285.299 397.098 283.42 399.416 283.42C401.734 283.42 403.613 285.299 403.613 287.617ZM391.022 287.617C391.022 292.253 394.78 296.011 399.416 296.011C404.052 296.011 407.81 292.253 407.81 287.617C407.81 282.981 404.052 279.223 399.416 279.223C394.78 279.223 391.022 282.981 391.022 287.617ZM404.662 307.553C404.662 304.655 402.313 302.306 399.416 302.306C396.518 302.306 394.169 304.655 394.169 307.553V312.099C394.169 312.486 394.483 312.799 394.869 312.799H403.962C404.349 312.799 404.662 312.486 404.662 312.099V307.553ZM408.859 316.296C408.859 316.683 408.546 316.996 408.159 316.996H390.672C390.286 316.996 389.972 316.683 389.972 316.296V307.553C389.972 302.337 394.2 298.109 399.416 298.109C404.631 298.109 408.859 302.337 408.859 307.553V316.296ZM426.696 287.617C426.696 289.935 424.817 291.814 422.499 291.814C420.181 291.814 418.302 289.935 418.302 287.617C418.302 285.299 420.181 283.42 422.499 283.42C424.817 283.42 426.696 285.299 426.696 287.617ZM414.105 287.617C414.105 292.253 417.863 296.011 422.499 296.011C427.135 296.011 430.893 292.253 430.893 287.617C430.893 282.981 427.135 279.223 422.499 279.223C417.863 279.223 414.105 282.981 414.105 287.617ZM427.745 307.553C427.745 304.655 425.397 302.306 422.499 302.306C419.602 302.306 417.253 304.655 417.253 307.553V312.099C417.253 312.486 417.566 312.799 417.952 312.799H427.046C427.432 312.799 427.745 312.486 427.745 312.099V307.553ZM413.056 312.799V307.553C413.056 302.337 417.284 298.109 422.499 298.109C427.715 298.109 431.942 302.337 431.942 307.553V316.296C431.942 316.683 431.629 316.996 431.243 316.996H413.755C413.369 316.996 413.056 316.683 413.056 316.296V312.799Z" fill="var(--fill-0, #F5F5F5)" fill-opacity="0.9"/>
</g>
<g id="Validator Badge">
<g id="Polygon 2_3" filter="url(#filter4_iiii_365_351)">
<path d="M148.256 251.06C151.142 249.394 154.697 249.394 157.583 251.06L191.334 270.546C194.22 272.212 195.997 275.291 195.997 278.623V317.596C195.997 320.928 194.22 324.007 191.334 325.673L157.583 345.159C154.697 346.825 151.142 346.825 148.256 345.159L114.505 325.673C111.619 324.007 109.841 320.928 109.841 317.596V278.623C109.841 275.291 111.619 272.212 114.505 270.546L148.256 251.06Z" fill="url(#paint3_linear_365_351)"/>
</g>
<path id="Vector 4 (Stroke)" d="M170.407 278.135C170.793 278.135 171.107 278.448 171.107 278.834V314.539C171.107 314.801 170.96 315.041 170.728 315.161L169.818 315.629L153.239 324.138C153.038 324.241 152.801 324.241 152.6 324.138L136.021 315.629L135.111 315.161C134.879 315.041 134.732 314.801 134.732 314.539V278.834C134.732 278.448 135.046 278.135 135.432 278.135H170.407ZM139.477 311.64C139.477 311.902 139.624 312.143 139.857 312.262L152.6 318.802C152.801 318.905 153.038 318.905 153.239 318.802L165.982 312.262C166.215 312.143 166.362 311.902 166.362 311.64V283.58C166.362 283.194 166.049 282.88 165.663 282.88H140.176C139.79 282.88 139.477 283.194 139.477 283.58V311.64Z" fill="var(--fill-0, #F5F5F5)" fill-opacity="0.9"/>
</g>
<g id="Builder Badge">
<g id="Polygon 2_4" filter="url(#filter6_iiii_365_351)">
<path d="M277.275 27.4676C280.161 25.8016 283.716 25.8016 286.602 27.4676L320.354 46.954C323.239 48.62 325.017 51.699 325.017 55.0311V94.0039C325.017 97.336 323.239 100.415 320.354 102.081L286.602 121.567C283.716 123.233 280.161 123.233 277.275 121.567L243.524 102.081C240.638 100.415 238.861 97.336 238.861 94.0039V55.0311C238.861 51.699 240.638 48.62 243.524 46.954L277.275 27.4676Z" fill="url(#paint4_linear_365_351)"/>
</g>
<g id="Vector_2">
<path fill-rule="evenodd" clip-rule="evenodd" d="M279.1 92.9454V90.1474C279.1 89.3748 279.727 88.7484 280.499 88.7484H300.085C300.858 88.7485 301.484 89.3749 301.484 90.1474V92.9454C301.484 93.718 300.858 94.3443 300.085 94.3444H280.499C279.726 94.3444 279.1 93.718 279.1 92.9454Z" fill="var(--fill-0, #F5F5F5)" fill-opacity="0.9"/>
<path d="M263.971 59.9199C264.518 59.3736 265.404 59.3736 265.95 59.9199L279.8 73.7692C280.346 74.3155 280.346 75.2012 279.8 75.7475L265.95 89.5975C265.404 90.1438 264.518 90.1438 263.971 89.5975L261.993 87.6185C261.447 87.0722 261.447 86.1865 261.993 85.6402L272.875 74.7584L261.993 63.8772C261.447 63.3308 261.447 62.4445 261.993 61.8982L263.971 59.9199Z" fill="var(--fill-0, #F5F5F5)" fill-opacity="0.9"/>
</g>
</g>
</g>
<defs>
<filter id="filter0_iiii_365_351" x="229.312" y="165.381" width="105.253" height="117.784" filterUnits="userSpaceOnUse" color-interpolation-filters="sRGB">
<feFlood flood-opacity="0" result="BackgroundImageFix"/>
<feBlend mode="normal" in="SourceGraphic" in2="BackgroundImageFix" result="shape"/>
<feColorMatrix in="SourceAlpha" type="matrix" values="0 0 0 0 0 0 0 0 0 0 0 0 0 0 0 0 0 0 127 0" result="hardAlpha"/>
<feOffset dx="-0.932668" dy="-0.932668"/>
<feGaussianBlur stdDeviation="0.932668"/>
<feComposite in2="hardAlpha" operator="arithmetic" k2="-1" k3="1"/>
<feColorMatrix type="matrix" values="0 0 0 0 1 0 0 0 0 1 0 0 0 0 1 0 0 0 0.15 0"/>
<feBlend mode="lighten" in2="shape" result="effect1_innerShadow_365_351"/>
<feColorMatrix in="SourceAlpha" type="matrix" values="0 0 0 0 0 0 0 0 0 0 0 0 0 0 0 0 0 0 127 0" result="hardAlpha"/>
<feOffset dx="-0.466334" dy="-0.466334"/>
<feGaussianBlur stdDeviation="0.932668"/>
<feComposite in2="hardAlpha" operator="arithmetic" k2="-1" k3="1"/>
<feColorMatrix type="matrix" values="0 0 0 0 0 0 0 0 0 0 0 0 0 0 0 0 0 0 0.25 0"/>
<feBlend mode="overlay" in2="effect1_innerShadow_365_351" result="effect2_innerShadow_365_351"/>
<feColorMatrix in="SourceAlpha" type="matrix" values="0 0 0 0 0 0 0 0 0 0 0 0 0 0 0 0 0 0 127 0" result="hardAlpha"/>
<feOffset dx="0.932668" dy="0.932668"/>
<feGaussianBlur stdDeviation="0.932668"/>
<feComposite in2="hardAlpha" operator="arithmetic" k2="-1" k3="1"/>
<feColorMatrix type="matrix" values="0 0 0 0 1 0 0 0 0 1 0 0 0 0 1 0 0 0 0.5 0"/>
<feBlend mode="lighten" in2="effect2_innerShadow_365_351" result="effect3_innerShadow_365_351"/>
<feColorMatrix in="SourceAlpha" type="matrix" values="0 0 0 0 0 0 0 0 0 0 0 0 0 0 0 0 0 0 127 0" result="hardAlpha"/>
<feOffset dx="0.466334" dy="0.466334"/>
<feGaussianBlur stdDeviation="1.86534"/>
<feComposite in2="hardAlpha" operator="arithmetic" k2="-1" k3="1"/>
<feColorMatrix type="matrix" values="0 0 0 0 0 0 0 0 0 0 0 0 0 0 0 0 0 0 0.25 0"/>
<feBlend mode="overlay" in2="effect3_innerShadow_365_351" result="effect4_innerShadow_365_351"/>
</filter>
<filter id="filter2_iiii_365_351" x="367.102" y="249.033" width="87.7106" height="98.1533" filterUnits="userSpaceOnUse" color-interpolation-filters="sRGB">
<feFlood flood-opacity="0" result="BackgroundImageFix"/>
<feBlend mode="normal" in="SourceGraphic" in2="BackgroundImageFix" result="shape"/>
<feColorMatrix in="SourceAlpha" type="matrix" values="0 0 0 0 0 0 0 0 0 0 0 0 0 0 0 0 0 0 127 0" result="hardAlpha"/>
<feOffset dx="-0.777223" dy="-0.777223"/>
<feGaussianBlur stdDeviation="0.777223"/>
<feComposite in2="hardAlpha" operator="arithmetic" k2="-1" k3="1"/>
<feColorMatrix type="matrix" values="0 0 0 0 1 0 0 0 0 1 0 0 0 0 1 0 0 0 0.15 0"/>
<feBlend mode="lighten" in2="shape" result="effect1_innerShadow_365_351"/>
<feColorMatrix in="SourceAlpha" type="matrix" values="0 0 0 0 0 0 0 0 0 0 0 0 0 0 0 0 0 0 127 0" result="hardAlpha"/>
<feOffset dx="-0.388612" dy="-0.388612"/>
<feGaussianBlur stdDeviation="0.777223"/>
<feComposite in2="hardAlpha" operator="arithmetic" k2="-1" k3="1"/>
<feColorMatrix type="matrix" values="0 0 0 0 0 0 0 0 0 0 0 0 0 0 0 0 0 0 0.25 0"/>
<feBlend mode="overlay" in2="effect1_innerShadow_365_351" result="effect2_innerShadow_365_351"/>
<feColorMatrix in="SourceAlpha" type="matrix" values="0 0 0 0 0 0 0 0 0 0 0 0 0 0 0 0 0 0 127 0" result="hardAlpha"/>
<feOffset dx="0.777223" dy="0.777223"/>
<feGaussianBlur stdDeviation="0.777223"/>
<feComposite in2="hardAlpha" operator="arithmetic" k2="-1" k3="1"/>
<feColorMatrix type="matrix" values="0 0 0 0 1 0 0 0 0 1 0 0 0 0 1 0 0 0 0.5 0"/>
<feBlend mode="lighten" in2="effect2_innerShadow_365_351" result="effect3_innerShadow_365_351"/>
<feColorMatrix in="SourceAlpha" type="matrix" values="0 0 0 0 0 0 0 0 0 0 0 0 0 0 0 0 0 0 127 0" result="hardAlpha"/>
<feOffset dx="0.388612" dy="0.388612"/>
<feGaussianBlur stdDeviation="1.55445"/>
<feComposite in2="hardAlpha" operator="arithmetic" k2="-1" k3="1"/>
<feColorMatrix type="matrix" values="0 0 0 0 0 0 0 0 0 0 0 0 0 0 0 0 0 0 0.25 0"/>
<feBlend mode="overlay" in2="effect3_innerShadow_365_351" result="effect4_innerShadow_365_351"/>
</filter>
<filter id="filter4_iiii_365_351" x="109.064" y="249.033" width="87.7106" height="98.1533" filterUnits="userSpaceOnUse" color-interpolation-filters="sRGB">
<feFlood flood-opacity="0" result="BackgroundImageFix"/>
<feBlend mode="normal" in="SourceGraphic" in2="BackgroundImageFix" result="shape"/>
<feColorMatrix in="SourceAlpha" type="matrix" values="0 0 0 0 0 0 0 0 0 0 0 0 0 0 0 0 0 0 127 0" result="hardAlpha"/>
<feOffset dx="-0.777223" dy="-0.777223"/>
<feGaussianBlur stdDeviation="0.777223"/>
<feComposite in2="hardAlpha" operator="arithmetic" k2="-1" k3="1"/>
<feColorMatrix type="matrix" values="0 0 0 0 1 0 0 0 0 1 0 0 0 0 1 0 0 0 0.15 0"/>
<feBlend mode="lighten" in2="shape" result="effect1_innerShadow_365_351"/>
<feColorMatrix in="SourceAlpha" type="matrix" values="0 0 0 0 0 0 0 0 0 0 0 0 0 0 0 0 0 0 127 0" result="hardAlpha"/>
<feOffset dx="-0.388612" dy="-0.388612"/>
<feGaussianBlur stdDeviation="0.777223"/>
<feComposite in2="hardAlpha" operator="arithmetic" k2="-1" k3="1"/>
<feColorMatrix type="matrix" values="0 0 0 0 0 0 0 0 0 0 0 0 0 0 0 0 0 0 0.25 0"/>
<feBlend mode="overlay" in2="effect1_innerShadow_365_351" result="effect2_innerShadow_365_351"/>
<feColorMatrix in="SourceAlpha" type="matrix" values="0 0 0 0 0 0 0 0 0 0 0 0 0 0 0 0 0 0 127 0" result="hardAlpha"/>
<feOffset dx="0.777223" dy="0.777223"/>
<feGaussianBlur stdDeviation="0.777223"/>
<feComposite in2="hardAlpha" operator="arithmetic" k2="-1" k3="1"/>
<feColorMatrix type="matrix" values="0 0 0 0 1 0 0 0 0 1 0 0 0 0 1 0 0 0 0.5 0"/>
<feBlend mode="lighten" in2="effect2_innerShadow_365_351" result="effect3_innerShadow_365_351"/>
<feColorMatrix in="SourceAlpha" type="matrix" values="0 0 0 0 0 0 0 0 0 0 0 0 0 0 0 0 0 0 127 0" result="hardAlpha"/>
<feOffset dx="0.388612" dy="0.388612"/>
<feGaussianBlur stdDeviation="1.55445"/>
<feComposite in2="hardAlpha" operator="arithmetic" k2="-1" k3="1"/>
<feColorMatrix type="matrix" values="0 0 0 0 0 0 0 0 0 0 0 0 0 0 0 0 0 0 0.25 0"/>
<feBlend mode="overlay" in2="effect3_innerShadow_365_351" result="effect4_innerShadow_365_351"/>
</filter>
<filter id="filter6_iiii_365_351" x="238.083" y="25.4408" width="87.7106" height="98.1533" filterUnits="userSpaceOnUse" color-interpolation-filters="sRGB">
<feFlood flood-opacity="0" result="BackgroundImageFix"/>
<feBlend mode="normal" in="SourceGraphic" in2="BackgroundImageFix" result="shape"/>
<feColorMatrix in="SourceAlpha" type="matrix" values="0 0 0 0 0 0 0 0 0 0 0 0 0 0 0 0 0 0 127 0" result="hardAlpha"/>
<feOffset dx="-0.777223" dy="-0.777223"/>
<feGaussianBlur stdDeviation="0.777223"/>
<feComposite in2="hardAlpha" operator="arithmetic" k2="-1" k3="1"/>
<feColorMatrix type="matrix" values="0 0 0 0 1 0 0 0 0 1 0 0 0 0 1 0 0 0 0.15 0"/>
<feBlend mode="lighten" in2="shape" result="effect1_innerShadow_365_351"/>
<feColorMatrix in="SourceAlpha" type="matrix" values="0 0 0 0 0 0 0 0 0 0 0 0 0 0 0 0 0 0 127 0" result="hardAlpha"/>
<feOffset dx="-0.388612" dy="-0.388612"/>
<feGaussianBlur stdDeviation="0.777223"/>
<feComposite in2="hardAlpha" operator="arithmetic" k2="-1" k3="1"/>
<feColorMatrix type="matrix" values="0 0 0 0 0 0 0 0 0 0 0 0 0 0 0 0 0 0 0.25 0"/>
<feBlend mode="overlay" in2="effect1_innerShadow_365_351" result="effect2_innerShadow_365_351"/>
<feColorMatrix in="SourceAlpha" type="matrix" values="0 0 0 0 0 0 0 0 0 0 0 0 0 0 0 0 0 0 127 0" result="hardAlpha"/>
<feOffset dx="0.777223" dy="0.777223"/>
<feGaussianBlur stdDeviation="0.777223"/>
<feComposite in2="hardAlpha" operator="arithmetic" k2="-1" k3="1"/>
<feColorMatrix type="matrix" values="0 0 0 0 1 0 0 0 0 1 0 0 0 0 1 0 0 0 0.5 0"/>
<feBlend mode="lighten" in2="effect2_innerShadow_365_351" result="effect3_innerShadow_365_351"/>
<feColorMatrix in="SourceAlpha" type="matrix" values="0 0 0 0 0 0 0 0 0 0 0 0 0 0 0 0 0 0 127 0" result="hardAlpha"/>
<feOffset dx="0.388612" dy="0.388612"/>
<feGaussianBlur stdDeviation="1.55445"/>
<feComposite in2="hardAlpha" operator="arithmetic" k2="-1" k3="1"/>
<feColorMatrix type="matrix" values="0 0 0 0 0 0 0 0 0 0 0 0 0 0 0 0 0 0 0.25 0"/>
<feBlend mode="overlay" in2="effect3_innerShadow_365_351" result="effect4_innerShadow_365_351"/>
</filter>
<radialGradient id="paint0_radial_365_351" cx="0" cy="0" r="1" gradientUnits="userSpaceOnUse" gradientTransform="translate(281.939 224.273) rotate(90) scale(223.84 281.689)">
<stop/>
<stop offset="1" stop-color="#666666" stop-opacity="0"/>
</radialGradient>
<linearGradient id="paint1_linear_365_351" x1="222.408" y1="164.583" x2="341.789" y2="283.964" gradientUnits="userSpaceOnUse">
<stop offset="0.15" stop-color="#1F1F1F"/>
<stop offset="0.5" stop-color="#0F0F0F"/>
<stop offset="0.85"/>
</linearGradient>
<linearGradient id="paint2_linear_365_351" x1="361.348" y1="248.367" x2="460.833" y2="347.852" gradientUnits="userSpaceOnUse">
<stop offset="0.15" stop-color="#A77FEE"/>
<stop offset="0.5" stop-color="#7F52E1"/>
<stop offset="0.85" stop-color="#5F33CA"/>
</linearGradient>
<linearGradient id="paint3_linear_365_351" x1="103.31" y1="248.367" x2="202.795" y2="347.852" gradientUnits="userSpaceOnUse">
<stop offset="0.15" stop-color="#6DA7F3"/>
<stop offset="0.5" stop-color="#387DE8"/>
<stop offset="0.85" stop-color="#2159D2"/>
</linearGradient>
<linearGradient id="paint4_linear_365_351" x1="232.33" y1="24.7752" x2="331.814" y2="124.26" gradientUnits="userSpaceOnUse">
<stop offset="0.15" stop-color="#F8B93D"/>
<stop offset="0.5" stop-color="#EE8D24"/>
<stop offset="0.85" stop-color="#DB6917"/>
</linearGradient>
</defs>
</svg>
