<svg preserveAspectRatio="none" width="100%" height="100%" overflow="visible" style="display: block;" viewBox="0 0 360.5 286.933" fill="none" xmlns="http://www.w3.org/2000/svg">
<path id="Polygon 7" d="M180.25 48.0997L97.6688 0.433039M180.25 48.0997L262.831 95.7664M180.25 48.0997L97.6688 95.7664M180.25 48.0997L262.831 0.433039M180.25 48.0997V143.433M262.831 95.7664V143.433V191.1M262.831 95.7664L360.25 39.5352L180.25 143.433M262.831 95.7664L180.25 143.433M262.831 191.1L180.25 238.766M262.831 191.1L180.25 143.433M180.25 238.766L97.6688 191.1M180.25 238.766L117.77 274.83C112.261 278.01 114.517 286.433 120.879 286.433H239.621C245.983 286.433 248.239 278.01 242.729 274.83L180.25 238.766ZM180.25 238.766V143.433M97.6688 191.1V95.7664M97.6688 191.1L180.25 143.433M97.6688 95.7664L180.25 143.433M0.249954 247.331L180.25 143.433M360.25 247.331L180.25 143.433" stroke="url(#paint0_radial_365_277)" stroke-dasharray="2 2"/>
<defs>
<radialGradient id="paint0_radial_365_277" cx="0" cy="0" r="1" gradientUnits="userSpaceOnUse" gradientTransform="translate(180.25 143.433) rotate(90) scale(143 180)">
<stop stop-color="#666666" stop-opacity="0"/>
<stop offset="1"/>
</radialGradient>
</defs>
</svg>
