<svg preserveAspectRatio="none" width="100%" height="100%" overflow="visible" style="display: block;" viewBox="0 0 208.776 66.8867" fill="none" xmlns="http://www.w3.org/2000/svg">
<path id="Vector 6 - Vector 8 - 896" d="M0 64L2.88675 66.8867L5.7735 64L2.88675 61.1132L0 64ZM19.7344 64L19.7344 64.5L19.7344 64ZM20.7988 63.8558L20.6658 63.3738L20.7988 63.8558ZM65.0333 51.6442L64.9002 51.1622L65.0333 51.6442ZM146.996 1.76322L146.631 1.42112L146.996 1.76322ZM101.52 50.2368L101.155 49.8947L101.52 50.2368ZM101.52 50.2368L101.885 50.5789L147.36 2.10532L146.996 1.76322L146.631 1.42112L101.155 49.8947L101.52 50.2368ZM149.913 0.500001V1L208.776 1V0.5V0L149.913 1.46031e-06V0.500001ZM66.0977 51.5V52H98.6029V51.5V51H66.0977V51.5ZM2.88675 64L2.88675 64.5L19.7344 64.5L19.7344 64V63.5L2.88675 63.5L2.88675 64ZM20.7988 63.8558L20.9319 64.3377L65.1663 52.1262L65.0333 51.6442L64.9002 51.1622L20.6658 63.3738L20.7988 63.8558ZM19.7344 64L19.7344 64.5C20.139 64.5 20.5418 64.4454 20.9319 64.3377L20.7988 63.8558L20.6658 63.3738C20.3624 63.4575 20.0491 63.5 19.7344 63.5V64ZM66.0977 51.5V51C65.6931 51 65.2903 51.0546 64.9002 51.1622L65.0333 51.6442L65.1663 52.1262C65.4697 52.0424 65.783 52 66.0977 52V51.5ZM146.996 1.76322L147.36 2.10532C148.022 1.40008 148.946 1 149.913 1V0.500001V1.46031e-06C148.67 1.49012e-06 147.482 0.514388 146.631 1.42112L146.996 1.76322ZM101.52 50.2368L101.155 49.8947C100.494 50.5999 99.5699 51 98.6029 51V51.5V52C99.8462 52 101.034 51.4856 101.885 50.5789L101.52 50.2368Z" fill="url(#paint0_linear_365_330)"/>
<defs>
<linearGradient id="paint0_linear_365_330" x1="208.776" y1="26" x2="30.7764" y2="26" gradientUnits="userSpaceOnUse">
<stop stop-color="#F5F5F5"/>
<stop offset="1"/>
</linearGradient>
</defs>
</svg>
