<svg preserveAspectRatio="none" width="100%" height="100%" overflow="visible" style="display: block;" viewBox="0 0 166.448 64.8274" fill="none" xmlns="http://www.w3.org/2000/svg">
<path id="Vector" d="M13.9469 0H19.8625C21.3129 0 22.4877 1.17481 22.4877 2.62512V7.28796C22.4877 8.51994 21.6299 9.58559 20.424 9.8507L13.1048 11.4622C12.0652 11.6909 11.2646 12.5278 11.0827 13.5726L9.93387 20.1484C9.71554 21.4064 8.62391 22.3213 7.35034 22.3213H2.62512C1.17481 22.3213 0 21.1465 0 19.6962V13.7806C0 12.3303 1.17481 11.1555 2.62512 11.1555H8.69149C10.1418 11.1555 11.3166 9.98066 11.3166 8.53034V2.62512C11.3218 1.17481 12.4966 0 13.9469 0ZM69.1836 28.2733V25.7782C69.1836 24.5878 68.3831 23.5481 67.2343 23.2414L61.6462 21.7495C60.7105 21.5 59.9827 20.7514 59.7644 19.8054L58.1685 12.9177C57.893 11.7273 56.8326 10.8852 55.611 10.8852H26.2201C24.9985 10.8852 23.938 11.7273 23.6625 12.9125L22.0666 19.7742C21.8379 20.7462 21.0789 21.5104 20.1069 21.7339L13.24 23.335C12.0496 23.6105 11.2074 24.6709 11.2074 25.8925V49.846C11.2074 51.0676 12.0496 52.1281 13.24 52.4036L20.1173 53.9942C21.0945 54.223 21.8535 54.9819 22.0822 55.9592L23.6677 62.7949C23.9432 63.9853 25.0037 64.8274 26.2253 64.8274H55.611C56.8326 64.8274 57.893 63.9853 58.1685 62.7949L59.7696 55.8812C59.9879 54.9351 60.7105 54.1866 61.6514 53.9371L67.2343 52.4452C68.3831 52.1385 69.1836 51.0988 69.1836 49.9084V47.4132C69.1836 45.9629 68.0088 44.7881 66.5585 44.7881H62.0049C60.5545 44.7881 59.3797 45.9629 59.3797 47.4132V51.0312C59.3797 52.4815 58.2049 53.6564 56.7546 53.6564H24.9985C23.5481 53.6564 22.3733 52.4815 22.3733 51.0312V24.6813C22.3733 23.231 23.5481 22.0562 24.9985 22.0562H56.7494C58.1997 22.0562 59.3745 23.231 59.3745 24.6813V28.2733C59.3745 29.7236 60.5494 30.8984 61.9997 30.8984H66.5533C68.0088 30.8984 69.1836 29.7236 69.1836 28.2733ZM88.4276 35.4209C91.8065 35.4209 94.0885 33.3572 94.4212 30.0719H91.6401C91.3542 31.8965 90.1534 32.9985 88.4276 32.9985C86.3171 32.9985 84.7368 31.3923 84.7368 28.6112C84.7368 26.0225 86.1768 24.3902 88.334 24.3902C90.1326 24.3902 91.3802 25.5182 91.6453 27.2701H94.4264C94.1873 24.1043 91.8377 21.973 88.36 21.973C84.6693 21.973 81.8622 24.4422 81.8622 28.6164C81.8622 32.4475 84.2794 35.4209 88.4276 35.4209ZM98.9801 35.0622V28.7776C98.9801 26.3812 100.54 24.9672 103.175 24.9672H103.653V22.2122H103.175C101.065 22.2122 99.5779 23.1218 98.7617 24.8477L98.4238 22.3525H96.147V35.0622H98.9801ZM110.536 35.4209C114.325 35.4209 117.034 32.879 117.034 28.5904C117.034 24.8477 114.637 21.973 110.536 21.973C106.819 21.973 104.012 24.4422 104.012 28.5904C104.017 32.5203 106.414 35.4209 110.536 35.4209ZM110.536 32.9985C108.451 32.9985 106.892 31.3663 106.892 28.5852C106.892 26.0693 108.332 24.3902 110.536 24.3902C112.74 24.3902 114.159 26.0693 114.159 28.5852C114.159 31.1272 112.813 32.9985 110.536 32.9985ZM123.313 35.4209C125.086 35.4209 126.598 34.584 127.342 33.2169L127.56 35.0622H129.837V22.3525H127.009V30.0251C126.983 31.6574 125.834 32.9258 123.89 32.9258C122.377 32.9258 121.374 32.0836 121.374 30.6489V22.3525H118.546V30.7685C118.546 33.5288 120.293 35.4209 123.313 35.4209ZM139.521 35.0622V32.6658H138.081C137.026 32.6658 136.475 32.068 136.475 30.9868V24.7541H139.76V22.3577H136.475V18.0172H133.647V22.3577H131.417V24.7541H133.647V31.1791C133.647 33.6951 135.134 35.0622 137.889 35.0622H139.521ZM146.934 35.4209C150.724 35.4209 153.432 32.879 153.432 28.5904C153.432 24.8477 151.035 21.973 146.934 21.973C143.217 21.973 140.41 24.4422 140.41 28.5904C140.41 32.5203 142.807 35.4209 146.934 35.4209ZM146.934 32.9985C144.849 32.9985 143.29 31.3663 143.29 28.5852C143.29 26.0693 144.73 24.3902 146.934 24.3902C149.138 24.3902 150.557 26.0693 150.557 28.5852C150.552 31.1272 149.211 32.9985 146.934 32.9985ZM157.985 35.0622V27.3636C158.011 25.7106 159.254 24.437 161.104 24.437C162.685 24.437 163.62 25.3727 163.62 26.7866V35.057H166.448V26.6463C166.448 23.7924 164.676 21.973 161.962 21.973C160.07 21.973 158.464 22.9087 157.668 24.2291L157.429 22.3577H155.152V35.0674H157.985V35.0622ZM87.757 54.1658C89.8207 54.1658 91.401 53.1573 92.1184 51.5511L92.3835 53.8071H94.6603V36.762H91.8325V42.662C90.9436 41.4612 89.4569 40.7179 87.6583 40.7179C84.2794 40.7179 81.857 43.4522 81.857 47.3821C81.8622 51.3847 84.3314 54.1658 87.757 54.1658ZM88.2872 51.7694C86.2027 51.7694 84.7628 49.9708 84.7628 47.4081C84.7628 44.8661 86.2235 43.0935 88.334 43.0935C90.3977 43.0935 91.8325 44.8453 91.8325 47.3613C91.8325 49.9448 90.3717 51.7694 88.2872 51.7694ZM99.9365 53.8071V41.0974H97.1087V53.8071H99.9365ZM108.139 58.9846C112.002 58.9846 114.372 56.7805 114.372 53.4224V41.0974H112.116L111.877 43.0623C111.087 41.6484 109.481 40.7127 107.49 40.7127C104.111 40.7127 101.662 43.3742 101.662 47.1845C101.662 50.9741 104.106 53.6096 107.51 53.6096C109.33 53.6096 110.749 52.8402 111.56 51.6186V53.4172C111.56 55.3354 110.385 56.6765 108.129 56.6765C106.237 56.6765 104.963 55.7149 104.963 54.5193H102.135C102.146 57.2587 104.589 58.9846 108.139 58.9846ZM108.067 51.2392C106.003 51.2392 104.589 49.5861 104.589 47.1897C104.589 44.7673 106.003 43.1143 108.067 43.1143C110.13 43.1143 111.565 44.7673 111.565 47.1637C111.565 49.5601 110.13 51.2392 108.067 51.2392ZM119.576 53.8071V41.0974H116.748V53.8071H119.576ZM129.26 53.8071V51.4107H127.82C126.765 51.4107 126.214 50.8129 126.214 49.7317V43.4938H129.499V41.0974H126.214V36.7568H123.386V41.0974H121.156V43.4938H123.386V49.9188C123.386 52.4348 124.873 53.8019 127.628 53.8019H129.26V53.8071ZM135.279 54.067C137.437 54.067 138.83 53.2509 139.573 51.8837C139.599 52.0293 139.646 52.1956 139.693 52.3152C139.911 53.2717 140.701 53.8019 141.996 53.8019H143.337V51.5978H142.64C142.209 51.5978 142.016 51.4055 142.016 51.0468V45.2924C142.016 42.5841 140.124 40.7127 136.693 40.7127C133.408 40.7127 131.012 42.5841 130.747 45.2664H133.6C133.767 43.946 134.968 43.0363 136.647 43.0363C138.279 43.0363 139.235 43.8524 139.261 45.1C139.235 46.1085 137.821 46.1813 135.903 46.3944C133.434 46.6803 130.487 47.3041 130.461 50.2775C130.435 52.6531 132.353 54.067 135.279 54.067ZM135.856 51.8422C134.203 51.8422 133.315 51.1924 133.315 50.0903C133.315 48.7492 134.635 48.5309 136.215 48.3385C137.556 48.1722 138.783 48.0007 139.261 47.2573V49.0299C139.261 50.7349 137.795 51.8422 135.856 51.8422ZM147.605 53.8071V36.762H144.777V53.8071H147.605Z" fill="var(--fill-0, white)"/>
</svg>
