<svg preserveAspectRatio="none" width="100%" height="100%" overflow="visible" style="display: block;" viewBox="0 0 216.45 40.6362" fill="none" xmlns="http://www.w3.org/2000/svg">
<g id="logo1_white 1" clip-path="url(#clip0_0_54)">
<path id="Vector" d="M40.3726 27.2564L40.3865 27.2728L38.1828 30.0442L36.901 31.667L35.4333 33.5251C34.796 34.3321 34.4331 35.3388 34.4411 36.3778L34.441 36.3992C34.4468 36.9172 34.5216 37.4167 34.6559 37.8892C34.8238 38.4803 35.0849 39.0286 35.4202 39.5172L33.5864 37.979C33.0393 37.5191 32.476 37.0777 31.8846 36.6795C31.1974 36.2159 30.5781 35.6526 30.0475 35.0087C28.8049 33.5017 28.046 31.5531 28.0215 29.4145C28.0081 28.3055 28.1937 27.2424 28.544 26.2579C28.6686 25.9025 28.8159 25.5589 28.9826 25.228L28.983 25.2238C29.3963 24.4046 29.9271 23.6594 30.5565 23.0137C31.2692 22.2794 31.9311 21.4962 32.5661 20.6911L33.6759 19.2876L40.3726 27.2564ZM33.6749 19.2874L33.6611 19.2711L35.8647 16.4998L37.1465 14.8768L38.6141 13.0199C39.2515 12.2118 39.6145 11.2051 39.6063 10.1671C39.6072 10.1587 39.6057 10.1521 39.6065 10.1447C39.6007 9.62767 39.5259 9.12818 39.3916 8.65473C39.2239 8.06254 38.9628 7.51425 38.6273 7.02671L40.4612 8.56483C41.0082 9.02476 41.5716 9.46505 42.1629 9.86444C42.8503 10.3269 43.4696 10.8902 44.0001 11.5342C45.2427 13.0411 46.0016 14.9898 46.0261 17.1284C46.0395 18.2373 45.8539 19.3015 45.5036 20.286C45.378 20.6403 45.2317 20.9839 45.0649 21.3159L45.0647 21.3191C44.6514 22.1382 44.1205 22.8835 43.4911 23.5302C42.7784 24.2634 42.1167 25.0466 41.4816 25.8517L40.3717 27.2553L33.674 19.2862L33.6749 19.2874Z" fill="var(--fill-0, white)"/>
<path id="Vector_2" d="M5.26054 13.4097L5.2451 13.3948L7.15746 10.415L8.26873 8.67086L9.54124 6.67409C10.0938 5.80679 10.353 4.76859 10.2401 3.73569L10.238 3.71446C10.18 3.1996 10.0551 2.71022 9.87371 2.25375C9.64697 1.68264 9.33184 1.16353 8.94886 0.711307L10.9287 2.0563C11.5194 2.45863 12.1245 2.84079 12.7531 3.17731C13.4836 3.56902 14.1567 4.0669 14.7496 4.65393C16.1381 6.0276 17.09 7.88957 17.3305 10.0148C17.4559 11.1167 17.3786 12.1931 17.1295 13.208C17.0414 13.5742 16.9297 13.9309 16.7973 14.277V14.2812C16.4689 15.1379 16.0161 15.933 15.4551 16.639C14.8202 17.4415 14.2409 18.2876 13.6904 19.1527L12.7281 20.6612L5.26054 13.4097ZM12.7291 20.6612L12.7446 20.676L10.8322 23.6558L9.72095 25.4L8.44845 27.3957C7.8959 28.2641 7.6366 29.3023 7.74959 30.3341C7.7496 30.3426 7.75167 30.349 7.75167 30.3564C7.80971 30.8702 7.93457 31.3596 8.11597 31.8171C8.34272 32.3893 8.65785 32.9084 9.04083 33.3595L7.06097 32.0146C6.4703 31.6123 5.86524 31.2311 5.23658 30.8936C4.50605 30.5029 3.83302 30.0051 3.24013 29.418C1.85158 28.0443 0.899699 26.1823 0.659264 24.0572C0.53387 22.9552 0.611099 21.8777 0.860132 20.8629C0.949292 20.4977 1.06005 20.1411 1.19242 19.7939V19.7907C1.52078 18.934 1.97363 18.1389 2.53454 17.432C3.16942 16.6304 3.74873 15.7844 4.29923 14.9192L5.26157 13.4107L12.7302 20.6623L12.7291 20.6612Z" fill="var(--fill-0, white)"/>
<path id="Vector_3" d="M22.041 24.7181C24.7778 25.1139 27.3123 23.1749 27.7018 20.3871C28.0913 17.5994 26.1885 15.0186 23.4517 14.6228C20.7148 14.2269 18.1804 16.1659 17.7909 18.9537C17.4013 21.7414 19.3042 24.3222 22.041 24.7181Z" fill="var(--fill-0, white)"/>
<path id="Vector_4" d="M199.52 32.5764V8.49906H215.996V11.8355H203.578V18.6115H214.448V21.9136H203.578V29.24H216.202V32.5764H199.52Z" fill="var(--fill-0, white)"/>
<path id="Vector_5" d="M167.525 32.5764V8.49906H172.031L180.354 24.2526L188.575 8.49906H193.012V32.5764H189.4V14.1056L182.074 28.0017H178.565L171.137 14.1056V32.5764H167.525Z" fill="var(--fill-0, white)"/>
<path id="Vector_6" d="M146.412 32.5764V8.49906H162.888V11.8355H150.472V18.6115H161.341V21.9136H150.472V29.24H163.095V32.5764H146.412Z" fill="var(--fill-0, white)"/>
<path id="Vector_7" d="M123.017 32.5764V8.49906H126.972V19.3683L138.013 8.49906H142.829L131.96 19.2651L143.551 32.5764H138.529L129.173 22.0167L126.972 24.2182V32.5764H123.017Z" fill="var(--fill-0, white)"/>
<path id="Vector_8" d="M115.488 32.5764L113.114 26.5227H102.417L100.043 32.5764H96.0883L105.788 8.49906H109.881L119.615 32.5764H115.488ZM111.842 23.2551L107.783 12.7642L103.69 23.2551H111.842Z" fill="var(--fill-0, white)"/>
<path id="Vector_9" d="M86.1257 32.5764V11.8355H78.0079V8.49906H98.4045V11.8355H90.1843V32.5764H86.1257Z" fill="var(--fill-0, white)"/>
<path id="Vector_10" d="M56.2692 25.077L60.2248 24.5267C60.4311 25.6733 60.8096 26.6249 61.3599 27.3816C61.9102 28.1383 62.6554 28.7116 63.5956 29.1014C64.5358 29.4913 65.6479 29.6861 66.932 29.6861C67.8952 29.6861 68.7207 29.6059 69.4086 29.4454C70.1195 29.262 70.7157 29.0211 71.1972 28.7231C71.6788 28.4249 72.0342 28.058 72.2635 27.6224C72.4928 27.1867 72.6075 26.7051 72.6075 26.1777C72.6075 25.3981 72.4125 24.7675 72.0228 24.2859C71.6559 23.8043 71.094 23.4146 70.3373 23.1164C69.5806 22.8184 68.629 22.5775 67.4824 22.3941L64.8683 21.9469C63.7218 21.7635 62.6669 21.4999 61.7038 21.1559C60.7637 20.8119 59.9496 20.3877 59.2616 19.8832C58.5737 19.3558 58.0464 18.7137 57.6795 17.957C57.3126 17.1773 57.1291 16.2601 57.1291 15.2053C57.1291 14.1505 57.3355 13.1989 57.7482 12.3504C58.184 11.479 58.803 10.7337 59.6056 10.1147C60.4083 9.49549 61.3828 9.014 62.5293 8.67C63.6759 8.326 64.9715 8.15405 66.4161 8.15405C68.3882 8.15405 70.0507 8.42925 71.4036 8.97958C72.7794 9.52991 73.8572 10.344 74.6368 11.4217C75.4165 12.4765 75.9209 13.8179 76.1503 15.446L72.2291 15.9964C71.931 14.4371 71.3233 13.2791 70.4061 12.5224C69.4889 11.7656 68.1359 11.3873 66.3474 11.3873C65.4989 11.3873 64.7536 11.479 64.1115 11.6625C63.4695 11.823 62.9306 12.0523 62.495 12.3504C62.0592 12.6485 61.7268 13.0039 61.4975 13.4167C61.2911 13.8295 61.1879 14.2881 61.1879 14.7926C61.1879 15.5952 61.3942 16.2257 61.8071 16.6844C62.2427 17.143 62.8504 17.4983 63.63 17.7506C64.4097 18.0029 65.3613 18.2436 66.4849 18.473L69.0646 18.9201C70.6468 19.2182 71.9998 19.6195 73.1234 20.1239C74.2699 20.6284 75.1413 21.3393 75.7375 22.2565C76.3567 23.1508 76.6662 24.3203 76.6662 25.765C76.6662 26.9115 76.4369 27.9319 75.9783 28.8262C75.5426 29.7206 74.8891 30.4772 74.0177 31.0964C73.1693 31.6926 72.1374 32.1512 70.922 32.4722C69.7067 32.7704 68.3424 32.9194 66.8289 32.9194C65.2237 32.9194 63.8135 32.7589 62.5981 32.4379C61.3828 32.1169 60.3394 31.6353 59.4681 30.9932C58.5967 30.3512 57.8973 29.5486 57.3699 28.5855C56.8425 27.5994 56.4756 26.4299 56.2692 25.077Z" fill="var(--fill-0, white)"/>
</g>
<defs>
<clipPath id="clip0_0_54">
<rect width="216.45" height="40.6362" fill="white"/>
</clipPath>
</defs>
</svg>
