<?xml version="1.0" encoding="UTF-8" standalone="no"?>
<svg width="32px" height="32px" viewBox="0 0 200 200" version="1.1" xmlns="http://www.w3.org/2000/svg" xmlns:xlink="http://www.w3.org/1999/xlink">
    <g stroke="none" stroke-width="1" fill="none" fill-rule="evenodd">
        <circle fill="#0369A1" cx="100" cy="100" r="90"></circle>
        <path d="M55,60 L145,60 C150.522847,60 155,64.4771525 155,70 L155,130 C155,135.522847 150.522847,140 145,140 L55,140 C49.4771525,140 45,135.522847 45,130 L45,70 C45,64.4771525 49.4771525,60 55,60 Z" fill="#F0F9FF"></path>
        <rect fill="#0369A1" x="70" y="80" width="60" height="10" rx="2"></rect>
        <rect fill="#0369A1" x="70" y="100" width="60" height="10" rx="2"></rect>
        <rect fill="#0369A1" x="70" y="120" width="60" height="10" rx="2"></rect>
        <rect fill="#6D28D9" x="55" y="80" width="10" height="10" rx="2"></rect>
        <rect fill="#6D28D9" x="55" y="100" width="10" height="10" rx="2"></rect>
        <rect fill="#6D28D9" x="55" y="120" width="10" height="10" rx="2"></rect>
        <rect fill="#059669" x="135" y="80" width="10" height="10" rx="2"></rect>
        <rect fill="#059669" x="135" y="100" width="10" height="10" rx="2"></rect>
        <rect fill="#059669" x="135" y="120" width="10" height="10" rx="2"></rect>
    </g>
</svg>