<svg preserveAspectRatio="xMidYMid meet" width="100%" height="100%" overflow="visible" style="display: block;" viewBox="0 0 1565.18 256" fill="none" xmlns="http://www.w3.org/2000/svg">
<g id="Group 2">
<g id="Portal">
<path id="Vector" d="M1565.18 189V63.6001H1544.85V189H1565.18Z" fill="var(--fill-0, black)"/>
<path id="Vector_2" d="M1474.77 191.66C1466.16 191.66 1458.56 189.697 1451.97 185.77C1445.51 181.717 1440.44 176.08 1436.77 168.86C1433.1 161.513 1431.26 153.153 1431.26 143.78C1431.26 134.533 1433.1 126.3 1436.77 119.08C1440.57 111.733 1445.83 106.097 1452.54 102.17C1459.25 98.1165 1466.85 96.0898 1475.34 96.0898C1479.65 96.0898 1483.76 96.7232 1487.69 97.9898C1491.62 99.1298 1495.1 100.713 1498.14 102.74C1501.18 104.767 1503.78 107.047 1505.93 109.58V98.7498H1525.5V189H1505.93V176.27C1504.92 177.41 1503.97 178.55 1503.08 179.69C1499.41 183.49 1495.23 186.467 1490.54 188.62C1485.98 190.647 1480.72 191.66 1474.77 191.66ZM1485.6 173.61C1489.15 173.61 1492.44 172.66 1495.48 170.76C1498.52 168.86 1500.86 166.263 1502.51 162.97C1504.28 159.677 1505.17 156.003 1505.17 151.95V136.18C1505.17 132.253 1504.35 128.643 1502.7 125.35C1501.05 121.93 1498.71 119.207 1495.67 117.18C1492.63 115.153 1489.27 114.14 1485.6 114.14H1473.63C1469.58 114.14 1465.84 115.47 1462.42 118.13C1459 120.79 1456.28 124.4 1454.25 128.96C1452.35 133.393 1451.4 138.333 1451.4 143.78C1451.4 149.227 1452.35 154.23 1454.25 158.79C1456.28 163.35 1459 166.96 1462.42 169.62C1465.84 172.28 1469.58 173.61 1473.63 173.61H1485.6Z" fill="var(--fill-0, black)"/>
<path id="Vector_3" d="M1401.58 188.6C1394.1 188.6 1388.39 186.778 1384.46 183.134C1380.66 179.49 1378.76 174.338 1378.76 167.678V74H1398.92V161.835C1398.92 164.851 1399.49 167.05 1400.63 168.432C1401.9 169.814 1404.18 170.505 1407.47 170.505H1423.26V188.6H1401.58ZM1361.26 99.0688H1422.5V118.165H1361.26V99.0688Z" fill="var(--fill-0, black)"/>
<path id="Vector_4" d="M1242.71 191.66C1233.46 191.66 1225.17 189.633 1217.82 185.58C1210.47 181.4 1204.71 175.7 1200.53 168.48C1196.35 161.26 1194.26 153.09 1194.26 143.97C1194.26 134.85 1196.35 126.68 1200.53 119.46C1204.71 112.113 1210.47 106.413 1217.82 102.36C1225.17 98.1798 1233.46 96.0898 1242.71 96.0898C1251.96 96.0898 1260.25 98.1798 1267.6 102.36C1275.07 106.413 1280.9 112.113 1285.08 119.46C1289.26 126.68 1291.35 134.85 1291.35 143.97C1291.35 153.09 1289.26 161.323 1285.08 168.67C1280.9 175.89 1275.07 181.527 1267.6 185.58C1260.25 189.633 1251.96 191.66 1242.71 191.66ZM1248.22 173.42C1252.27 173.42 1256.07 172.153 1259.62 169.62C1263.17 166.96 1265.95 163.35 1267.98 158.79C1270.13 154.23 1271.21 149.29 1271.21 143.97C1271.21 138.65 1270.13 133.71 1267.98 129.15C1265.95 124.463 1263.17 120.853 1259.62 118.32C1256.07 115.66 1252.27 114.33 1248.22 114.33H1237.39C1233.34 114.33 1229.54 115.66 1225.99 118.32C1222.44 120.98 1219.59 124.59 1217.44 129.15C1215.41 133.71 1214.4 138.65 1214.4 143.97C1214.4 149.29 1215.41 154.23 1217.44 158.79C1219.59 163.35 1222.44 166.96 1225.99 169.62C1229.54 172.153 1233.34 173.42 1237.39 173.42H1248.22Z" fill="var(--fill-0, black)"/>
<path id="Vector_5" d="M1100.22 67.3999H1155.7C1163.68 67.3999 1170.58 69.0466 1176.41 72.3399C1182.36 75.6332 1186.86 80.1932 1189.9 86.0199C1193.06 91.7199 1194.65 98.0532 1194.65 105.02C1194.65 111.987 1193.06 118.32 1189.9 124.02C1186.86 129.72 1182.36 134.217 1176.41 137.51C1170.58 140.803 1163.68 142.45 1155.7 142.45H1120.93V189H1100.22V67.3999ZM1155.7 124.21C1159.37 124.21 1162.6 123.45 1165.39 121.93C1168.17 120.283 1170.26 118.003 1171.66 115.09C1173.18 112.177 1173.94 108.82 1173.94 105.02C1173.94 99.1932 1172.29 94.5066 1169 90.9599C1165.7 87.4132 1161.27 85.6399 1155.7 85.6399H1120.93V124.21H1155.7Z" fill="var(--fill-0, black)"/>
</g>
<g id="GL Logo Black">
<path d="M826.284 222.305V204.817H846.251L853.742 186.605L815.257 98.9135H838.314L864.741 161.347H865.466L891.029 98.9135H913.196L875.463 187.05L860.676 222.305H826.256H826.284Z" fill="var(--fill-0, black)"/>
<path d="M295.571 129.016C295.571 90.5037 319.854 65.0791 358.005 65.0791C390.057 65.0791 410.942 82.3444 413.031 107.379H392.535C388.943 92.3973 377.748 83.8482 366.916 83.8482H349.65C331.995 83.8482 316.262 103.759 316.262 128.627C316.262 153.494 332.385 173.015 351.182 173.015H363.908C377.943 173.015 388.943 164.661 393.51 155.75V139.988H362.961V123.113H412.474V161.821C404.872 176.607 387.801 191.812 357.837 191.812C320.077 191.812 295.599 168.671 295.599 129.016H295.571Z" fill="var(--fill-0, black)"/>
<path d="M427.289 144.193C427.289 115.176 446.642 96.3794 474.907 96.3794C501.669 96.3794 519.491 112.698 519.491 145.14V149.707H447.199C449.093 163.547 457.837 174.38 470.925 174.38H479.085C489.332 174.38 495.96 168.114 498.049 160.15H517.792C515.314 178.362 500.332 191.84 474.35 191.84C444.359 191.84 427.289 171.734 427.289 144.221V144.193ZM499.385 134.53C498.438 121.804 489.527 113.84 479.836 113.84H469.394C458.951 113.84 450.597 121.999 447.951 134.53H499.385Z" fill="var(--fill-0, black)"/>
<path d="M533.777 96.3794H583.484C605.873 96.3794 618.961 109.106 618.961 132.442V189.167H599.051V135.839C599.051 122.751 592.423 114.981 582.927 114.981H553.715V189.167H533.804V96.3794H533.777Z" fill="var(--fill-0, black)"/>
<path d="M635.725 67.7246H656.221V170.37H701.501V189.167H635.725V67.7246Z" fill="var(--fill-0, black)"/>
<path d="M707.182 143.998C707.182 115.928 725.394 96.3794 751.403 96.3794C764.881 96.3794 775.881 102.645 781.757 109.858V99.0528H801.305V189.167H781.757V176.44C774.934 185.157 765.048 191.812 750.818 191.812C724.642 191.812 707.182 172.263 707.182 143.998ZM749.509 173.99H761.456C772.651 173.99 781.2 164.494 781.2 152.158V136.396C781.2 124.449 773.235 114.202 761.456 114.202H749.509C737.173 114.202 727.12 127.485 727.12 143.998C727.12 160.512 737.173 173.99 749.509 173.99Z" fill="var(--fill-0, black)"/>
<path d="M913.224 144.193C913.224 115.176 932.577 96.3794 960.842 96.3794C987.604 96.3794 1005.43 112.698 1005.43 145.14V149.707H933.134C935.028 163.547 943.772 174.38 956.86 174.38H965.02C975.267 174.38 981.895 168.114 983.984 160.15H1003.73C1001.25 178.362 986.267 191.84 960.285 191.84C930.294 191.84 913.224 171.734 913.224 144.221V144.193ZM985.32 134.53C984.373 121.804 975.462 113.84 965.771 113.84H955.329C944.886 113.84 936.532 121.999 933.886 134.53H985.32Z" fill="var(--fill-0, black)"/>
<path d="M123.252 90.0859L77.1926 186.911L120.551 208.576L0 256L123.252 0V90.0859Z" fill="var(--fill-0, black)"/>
<path d="M148.983 90.0859L195.042 186.911L151.684 208.576L272.235 256L148.983 0V90.0859Z" fill="var(--fill-0, black)"/>
<path d="M135.449 121.915L162.433 175.271L135.449 188.498L109.913 175.215L135.449 121.915Z" fill="var(--fill-0, black)"/>
<path d="M1073.04 99.0528H1019.74V189.167H1039.65V118.212H1073.04V99.0528Z" fill="var(--fill-0, black)"/>
</g>
<path id="GL Logo Black_2" d="M1353.59 99.0527H1300.29V189.167H1320.2V118.212H1353.59V99.0527Z" fill="var(--fill-0, black)"/>
</g>
</svg>
