<svg width="214" height="32" viewBox="0 0 214 32" fill="none" xmlns="http://www.w3.org/2000/svg">
<path d="M107.286 27.7881V25.6021H109.781L110.718 23.3256L105.907 12.3642H108.789L112.093 20.1684H112.183L115.379 12.3642H118.149L113.433 23.3813L111.584 27.7881H107.282H107.286Z" fill="black"/>
<path d="M40.9464 16.1271C40.9464 11.313 43.9817 8.13489 48.7506 8.13489C52.7571 8.13489 55.3678 10.293 55.6289 13.4224H53.0669C52.6179 11.5497 51.2185 10.481 49.8645 10.481H47.7063C45.4994 10.481 43.5327 12.9699 43.5327 16.0783C43.5327 19.1868 45.5481 21.6269 47.8978 21.6269H49.4885C51.2429 21.6269 52.6179 20.5826 53.1887 19.4687V17.4985H49.3702V15.3891H55.5592V20.2276C54.6089 22.0759 52.4751 23.9765 48.7297 23.9765C44.0096 23.9765 40.9499 21.0839 40.9499 16.1271H40.9464Z" fill="black"/>
<path d="M57.4111 18.0241C57.4111 14.397 59.8303 12.0474 63.3634 12.0474C66.7086 12.0474 68.9364 14.0872 68.9364 18.1425V18.7134H59.8999C60.1366 20.4434 61.2296 21.7975 62.8657 21.7975H63.8856C65.1665 21.7975 65.995 21.0142 66.2561 20.0187H68.724C68.4142 22.2952 66.5415 23.98 63.2938 23.98C59.5449 23.98 57.4111 21.4668 57.4111 18.0276V18.0241ZM66.4231 16.8163C66.3048 15.2255 65.1909 14.23 63.9795 14.23H62.6742C61.3689 14.23 60.3246 15.2499 59.9939 16.8163H66.4231Z" fill="black"/>
<path d="M70.7221 12.0474H76.9355C79.7341 12.0474 81.3702 13.6382 81.3702 16.5552V23.6458H78.8813V16.9799C78.8813 15.3438 78.0529 14.3727 76.8659 14.3727H73.2144V23.6458H70.7256V12.0474H70.7221Z" fill="black"/>
<path d="M83.4657 8.46557H86.0276V21.2962H91.6876V23.6458H83.4657V8.46557Z" fill="black"/>
<path d="M92.3977 17.9998C92.3977 14.491 94.6742 12.0474 97.9254 12.0474C99.6101 12.0474 100.985 12.8306 101.72 13.7322V12.3816H104.163V23.6458H101.72V22.055C100.867 23.1446 99.631 23.9765 97.8523 23.9765C94.5802 23.9765 92.3977 21.5329 92.3977 17.9998ZM97.6887 21.7487H99.182C100.581 21.7487 101.65 20.5617 101.65 19.0197V17.0495C101.65 15.5562 100.654 14.2752 99.182 14.2752H97.6887C96.1466 14.2752 94.89 15.9356 94.89 17.9998C94.89 20.064 96.1466 21.7487 97.6887 21.7487Z" fill="black"/>
<path d="M118.153 18.0241C118.153 14.397 120.572 12.0474 124.105 12.0474C127.45 12.0474 129.678 14.0872 129.678 18.1425V18.7134H120.642C120.878 20.4434 121.972 21.7975 123.608 21.7975H124.627C125.908 21.7975 126.737 21.0142 126.998 20.0187H129.466C129.156 22.2952 127.283 23.98 124.036 23.98C120.287 23.98 118.153 21.4668 118.153 18.0276V18.0241ZM127.165 16.8163C127.047 15.2255 125.933 14.23 124.721 14.23H123.416C122.111 14.23 121.066 15.2499 120.736 16.8163H127.165Z" fill="black"/>
<path d="M131.464 12.3816H138.13V14.7765H133.956V23.6458H131.467V12.3816H131.464Z" fill="black"/>
<path d="M19.4065 11.2607L13.6491 23.3639L19.0689 26.072L4 32L19.4065 0V11.2607Z" fill="black"/>
<path d="M22.6229 11.2607L28.3803 23.3639L22.9605 26.072L38.0294 32L22.6229 0V11.2607Z" fill="black"/>
<path d="M20.9311 15.2394L24.3041 21.9088L20.9311 23.5623L17.7392 21.9019L20.9311 15.2394Z" fill="black"/>
<path d="M144.362 8.64H151.37C152.378 8.64 153.25 8.848 153.986 9.264C154.738 9.68 155.306 10.256 155.69 10.992C156.09 11.712 156.29 12.512 156.29 13.392C156.29 14.272 156.09 15.072 155.69 15.792C155.306 16.512 154.738 17.08 153.986 17.496C153.25 17.912 152.378 18.12 151.37 18.12H146.978V24H144.362V8.64ZM151.37 15.816C151.834 15.816 152.242 15.72 152.594 15.528C152.946 15.32 153.21 15.032 153.386 14.664C153.578 14.296 153.674 13.872 153.674 13.392C153.674 12.656 153.466 12.064 153.05 11.616C152.634 11.168 152.074 10.944 151.37 10.944H146.978V15.816H151.37ZM163.018 24.336C161.85 24.336 160.802 24.08 159.874 23.568C158.946 23.04 158.218 22.32 157.69 21.408C157.162 20.496 156.898 19.464 156.898 18.312C156.898 17.16 157.162 16.128 157.69 15.216C158.218 14.288 158.946 13.568 159.874 13.056C160.802 12.528 161.85 12.264 163.018 12.264C164.186 12.264 165.234 12.528 166.162 13.056C167.106 13.568 167.842 14.288 168.37 15.216C168.898 16.128 169.162 17.16 169.162 18.312C169.162 19.464 168.898 20.504 168.37 21.432C167.842 22.344 167.106 23.056 166.162 23.568C165.234 24.08 164.186 24.336 163.018 24.336ZM163.714 22.032C164.226 22.032 164.706 21.872 165.154 21.552C165.602 21.216 165.954 20.76 166.21 20.184C166.482 19.608 166.618 18.984 166.618 18.312C166.618 17.64 166.482 17.016 166.21 16.44C165.954 15.848 165.602 15.392 165.154 15.072C164.706 14.736 164.226 14.568 163.714 14.568H162.346C161.834 14.568 161.354 14.736 160.906 15.072C160.458 15.408 160.098 15.864 159.826 16.44C159.57 17.016 159.442 17.64 159.442 18.312C159.442 18.984 159.57 19.608 159.826 20.184C160.098 20.76 160.458 21.216 160.906 21.552C161.354 21.872 161.834 22.032 162.346 22.032H163.714ZM171.312 14.904H169.848V12.6H173.88V24H171.312V14.904ZM170.952 8.16H173.904V10.824H170.952V8.16ZM176.369 12.6H178.865V14.28C179.233 13.608 179.729 13.104 180.353 12.768C180.993 12.432 181.769 12.264 182.681 12.264C183.625 12.264 184.433 12.44 185.105 12.792C185.777 13.128 186.289 13.64 186.641 14.328C186.993 15 187.169 15.832 187.169 16.824V24H184.625V17.256C184.625 16.712 184.537 16.248 184.361 15.864C184.201 15.464 183.969 15.16 183.665 14.952C183.361 14.744 183.009 14.64 182.609 14.64H181.217C180.817 14.64 180.441 14.752 180.089 14.976C179.737 15.2 179.457 15.512 179.249 15.912C179.041 16.296 178.937 16.744 178.937 17.256V24H176.369V12.6ZM193.317 24C192.373 24 191.653 23.768 191.157 23.304C190.677 22.84 190.437 22.184 190.437 21.336V9.408H192.981V20.592C192.981 20.976 193.053 21.256 193.197 21.432C193.357 21.608 193.645 21.696 194.061 21.696H196.053V24H193.317ZM188.229 12.6H195.957V14.808H188.229V12.6ZM202.23 24.336C200.582 24.336 199.342 24.024 198.51 23.4C197.678 22.76 197.238 21.816 197.19 20.568H199.638C199.702 21.08 199.894 21.488 200.214 21.792C200.55 22.08 201.03 22.224 201.654 22.224H203.238C203.782 22.224 204.19 22.104 204.462 21.864C204.734 21.608 204.87 21.28 204.87 20.88C204.87 20.496 204.75 20.192 204.51 19.968C204.286 19.744 203.926 19.592 203.43 19.512L200.766 19.2C199.678 19.072 198.862 18.704 198.318 18.096C197.774 17.488 197.502 16.728 197.502 15.816C197.502 14.664 197.91 13.784 198.726 13.176C199.558 12.568 200.742 12.264 202.278 12.264C203.782 12.264 204.942 12.576 205.758 13.2C206.59 13.824 207.03 14.776 207.078 16.056H204.63C204.598 15.704 204.518 15.408 204.39 15.168C204.262 14.928 204.078 14.736 203.838 14.592C203.598 14.448 203.27 14.376 202.854 14.376H201.462C200.934 14.376 200.534 14.504 200.262 14.76C200.006 15 199.878 15.312 199.878 15.696C199.878 16.08 199.998 16.392 200.238 16.632C200.494 16.856 200.87 17.008 201.366 17.088L204.054 17.4C204.774 17.496 205.366 17.688 205.83 17.976C206.31 18.248 206.662 18.616 206.886 19.08C207.126 19.528 207.246 20.064 207.246 20.688C207.246 21.888 206.83 22.8 205.998 23.424C205.182 24.032 203.926 24.336 202.23 24.336Z" fill="black"/>
</svg>
