<svg preserveAspectRatio="xMidYMid meet" width="100%" height="100%" viewBox="0 0 26.2495 23.9017" fill="none" xmlns="http://www.w3.org/2000/svg">
<g id="GL Symbol White">
<path d="M11.8488 7.61484C11.8488 7.67036 11.8365 7.72519 11.8127 7.77536L7.43756 17.0126C7.35033 17.1967 7.42614 17.4168 7.60827 17.5082L10.8318 19.126C11.1214 19.2713 11.1028 19.6908 10.8014 19.8099L0.51404 23.8744C0.196912 23.9997 -0.109308 23.671 0.0380898 23.3635L11.1356 0.213438C11.3081 -0.14645 11.8488 -0.0235625 11.8488 0.37554V7.61484Z" fill="#F5F5F5"/>
<path d="M14.4007 7.61484C14.4007 7.67036 14.4131 7.72519 14.4368 7.77536L18.812 17.0126C18.8992 17.1967 18.8234 17.4168 18.6413 17.5082L15.4178 19.126C15.1281 19.2713 15.1468 19.6908 15.4482 19.8099L25.7355 23.8744C26.0526 23.9997 26.3588 23.671 26.2114 23.3635L15.1139 0.213438C14.9414 -0.14645 14.4007 -0.0235626 14.4007 0.37554V7.61484Z" fill="#F5F5F5"/>
<path d="M12.7291 11.5601C12.8633 11.2787 13.2623 11.2745 13.4025 11.5529L15.5645 15.8464C15.6583 16.0326 15.5822 16.2594 15.3952 16.3515L13.2291 17.4179C13.1219 17.4707 12.9958 17.4692 12.8899 17.4139L10.8464 16.3463C10.6675 16.2528 10.5947 16.0346 10.6815 15.8524L12.7291 11.5601Z" fill="#F5F5F5"/>
</g>
</svg>
