<svg preserveAspectRatio="xMidYMid meet" width="100%" height="100%" viewBox="0 0 24 24" fill="none" xmlns="http://www.w3.org/2000/svg">
<g id="Code-S-Line Streamline Remix">
<path id="Vector" d="M8.5 7C8.5 8.10457 7.60457 9 6.5 9C5.39543 9 4.5 8.10457 4.5 7C4.5 5.89543 5.39543 5 6.5 5C7.60457 5 8.5 5.89543 8.5 7ZM2.5 7C2.5 9.20914 4.29086 11 6.5 11C8.70914 11 10.5 9.20914 10.5 7C10.5 4.79086 8.70914 3 6.5 3C4.29086 3 2.5 4.79086 2.5 7ZM9 16.5C9 15.1193 7.88071 14 6.5 14C5.11929 14 4 15.1193 4 16.5V18.6667C4 18.8508 4.14924 19 4.33333 19H8.66667C8.85076 19 9 18.8508 9 18.6667V16.5ZM11 20.6667C11 20.8508 10.8508 21 10.6667 21H2.33333C2.14924 21 2 20.8508 2 20.6667V16.5C2 14.0147 4.01472 12 6.5 12C8.98528 12 11 14.0147 11 16.5V20.6667ZM19.5 7C19.5 8.10457 18.6046 9 17.5 9C16.3954 9 15.5 8.10457 15.5 7C15.5 5.89543 16.3954 5 17.5 5C18.6046 5 19.5 5.89543 19.5 7ZM13.5 7C13.5 9.20914 15.2909 11 17.5 11C19.7091 11 21.5 9.20914 21.5 7C21.5 4.79086 19.7091 3 17.5 3C15.2909 3 13.5 4.79086 13.5 7ZM20 16.5C20 15.1193 18.8807 14 17.5 14C16.1193 14 15 15.1193 15 16.5V18.6667C15 18.8508 15.1492 19 15.3333 19H19.6667C19.8508 19 20 18.8508 20 18.6667V16.5ZM13 19V16.5C13 14.0147 15.0147 12 17.5 12C19.9853 12 22 14.0147 22 16.5V20.6667C22 20.8508 21.8508 21 21.6667 21H13.3333C13.1492 21 13 20.8508 13 20.6667V19Z" fill="#F5F5F5"/>
</g>
</svg>
