<svg width="16" height="16" viewBox="0 0 16 16" fill="none" xmlns="http://www.w3.org/2000/svg">
<path d="M5.66732 4.66667C5.66732 5.40305 5.07036 6 4.33398 6C3.5976 6 3.00065 5.40305 3.00065 4.66667C3.00065 3.93029 3.5976 3.33333 4.33398 3.33333C5.07036 3.33333 5.66732 3.93029 5.66732 4.66667ZM1.66732 4.66667C1.66732 6.13943 2.86122 7.33333 4.33398 7.33333C5.80674 7.33333 7.00065 6.13943 7.00065 4.66667C7.00065 3.19391 5.80674 2 4.33398 2C2.86122 2 1.66732 3.19391 1.66732 4.66667ZM6.00065 11C6.00065 10.0795 5.25446 9.33333 4.33398 9.33333C3.41351 9.33333 2.66732 10.0795 2.66732 11V12.6667H6.00065V11ZM7.33398 14H1.33398V11C1.33398 9.34313 2.67713 8 4.33398 8C5.99084 8 7.33398 9.34313 7.33398 11V14ZM13.0007 4.66667C13.0007 5.40305 12.4037 6 11.6673 6C10.9309 6 10.334 5.40305 10.334 4.66667C10.334 3.93029 10.9309 3.33333 11.6673 3.33333C12.4037 3.33333 13.0007 3.93029 13.0007 4.66667ZM9.00065 4.66667C9.00065 6.13943 10.1946 7.33333 11.6673 7.33333C13.1401 7.33333 14.334 6.13943 14.334 4.66667C14.334 3.19391 13.1401 2 11.6673 2C10.1946 2 9.00065 3.19391 9.00065 4.66667ZM13.334 11C13.334 10.0795 12.5878 9.33333 11.6673 9.33333C10.7469 9.33333 10.0007 10.0795 10.0007 11V12.6667H13.334V11ZM8.66732 12.6667V11C8.66732 9.34313 10.0105 8 11.6673 8C13.3242 8 14.6673 9.34313 14.6673 11V14H8.66732V12.6667Z" fill="#7F52E1"/>
</svg>
