<svg preserveAspectRatio="xMidYMid meet" width="100%" height="100%" overflow="visible" style="display: block;" viewBox="0 0 48 48" fill="none" xmlns="http://www.w3.org/2000/svg">
<g>
<g filter="url(#f1)">
<path d="M21.75 1.29904C23.1423 0.49519 24.8577 0.49519 26.25 1.29904L42.5346 10.701C43.9269 11.5048 44.7846 12.9904 44.7846 14.5981V33.4019C44.7846 35.0096 43.9269 36.4952 42.5346 37.299L26.25 46.701C24.8577 47.5048 23.1423 47.5048 21.75 46.701L5.46539 37.299C4.07309 36.4952 3.21539 35.0096 3.21539 33.4019V14.5981C3.21539 12.9904 4.07309 11.5048 5.46539 10.701L21.75 1.29904Z" fill="url(#g1)"/>
</g>
<g transform="translate(12, 12)">
<path d="M17 3h4a1 1 0 0 1 1 1v16a1 1 0 0 1-1 1H3a1 1 0 0 1-1-1V4a1 1 0 0 1 1-1h4V1h2v2h6V1h2v2zm-2 2H9v2H7V5H4v4h16V5h-3v2h-2V5zm5 6H4v8h16v-8z" fill="#F5F5F5" fill-opacity="0.9"/>
</g>
</g>
<defs>
<filter id="f1" x="2.84" y="0.32" width="42.32" height="47.36" filterUnits="userSpaceOnUse" color-interpolation-filters="sRGB">
<feFlood flood-opacity="0" result="bg"/><feBlend in="SourceGraphic" in2="bg" result="shape"/>
<feColorMatrix in="SourceAlpha" type="matrix" values="0 0 0 0 0 0 0 0 0 0 0 0 0 0 0 0 0 0 127 0" result="ha"/>
<feOffset dx="-0.375" dy="-0.375"/><feGaussianBlur stdDeviation="0.375"/>
<feComposite in2="ha" operator="arithmetic" k2="-1" k3="1"/>
<feColorMatrix type="matrix" values="0 0 0 0 1 0 0 0 0 1 0 0 0 0 1 0 0 0 0.15 0"/>
<feBlend mode="lighten" in2="shape" result="e1"/>
<feColorMatrix in="SourceAlpha" type="matrix" values="0 0 0 0 0 0 0 0 0 0 0 0 0 0 0 0 0 0 127 0" result="ha"/>
<feOffset dx="0.375" dy="0.375"/><feGaussianBlur stdDeviation="0.375"/>
<feComposite in2="ha" operator="arithmetic" k2="-1" k3="1"/>
<feColorMatrix type="matrix" values="0 0 0 0 1 0 0 0 0 1 0 0 0 0 1 0 0 0 0.3 0"/>
<feBlend mode="lighten" in2="e1" result="e2"/>
</filter>
<linearGradient id="g1" x1="0" y1="0" x2="48" y2="48" gradientUnits="userSpaceOnUse">
<stop offset="0.15" stop-color="#1f1f1f"/>
<stop offset="0.5" stop-color="#0f0f0f"/>
<stop offset="0.85" stop-color="#000000"/>
</linearGradient>
</defs>
</svg>
