<svg preserveAspectRatio="none" width="100%" height="100%" overflow="visible" style="display: block;" viewBox="0 0 16 16" fill="none" xmlns="http://www.w3.org/2000/svg">
<g id="link-m">
<path id="Vector" d="M11.7711 9.8856L10.8283 8.9428L11.7711 8C12.8125 6.9586 12.8125 5.27016 11.7711 4.22876C10.7297 3.18737 9.04127 3.18737 7.99987 4.22876L7.05707 5.17158L6.11426 4.22876L7.05707 3.28595C8.61913 1.72385 11.1518 1.72385 12.7139 3.28595C14.276 4.84805 14.276 7.38074 12.7139 8.9428L11.7711 9.8856ZM9.88547 11.7713L8.94267 12.7141C7.3806 14.2761 4.84793 14.2761 3.28583 12.7141C1.72373 11.1519 1.72373 8.61927 3.28583 7.0572L4.22864 6.11438L5.17145 7.0572L4.22864 8C3.18724 9.0414 3.18724 10.7299 4.22864 11.7713C5.27004 12.8126 6.95847 12.8126 7.99987 11.7713L8.94267 10.8284L9.88547 11.7713ZM9.88547 5.17158L10.8283 6.11438L6.11426 10.8284L5.17145 9.8856L9.88547 5.17158Z" fill="var(--fill-0, white)"/>
</g>
</svg>
