<svg preserveAspectRatio="xMidYMid meet" width="100%" height="100%" viewBox="0 0 16 16" fill="none" xmlns="http://www.w3.org/2000/svg">
<g id="search-line">
<path id="Vector" d="M12.0201 11.0777L14.8753 13.9329L13.9325 14.8757L11.0773 12.0205C10.0507 12.8419 8.74881 13.3332 7.33281 13.3332C4.02081 13.3332 1.33281 10.6452 1.33281 7.3332C1.33281 4.0212 4.02081 1.3332 7.33281 1.3332C10.6448 1.3332 13.3328 4.0212 13.3328 7.3332C13.3328 8.7492 12.8415 10.0511 12.0201 11.0777ZM10.6826 10.5831C11.4978 9.74294 11.9995 8.59694 11.9995 7.3332C11.9995 4.75487 9.91115 2.66654 7.33281 2.66654C4.75448 2.66654 2.66615 4.75487 2.66615 7.3332C2.66615 9.91154 4.75448 11.9999 7.33281 11.9999C8.59655 11.9999 9.74255 11.4982 10.5827 10.683L10.6826 10.5831Z" fill="#656567"/>
</g>
</svg>
