<svg width="16" height="16" viewBox="0 0 16 16" fill="none" xmlns="http://www.w3.org/2000/svg">
<path d="M3.9987 2C6.32524 2 8.25413 3.70253 8.60746 5.92967C9.39086 5.14926 10.4717 4.66667 11.6653 4.66667H14.6653V6.33333C14.6653 8.7266 12.7253 10.6667 10.332 10.6667H8.66533V14H7.332V8.66667H5.9987C3.42136 8.66667 1.33203 6.57733 1.33203 4V2H3.9987ZM13.332 6H11.6653C10.0085 6 8.66533 7.34313 8.66533 9V9.33333H10.332C11.9889 9.33333 13.332 7.9902 13.332 6.33333V6ZM3.9987 3.33333H2.66536V4C2.66536 5.84095 4.15774 7.33333 5.9987 7.33333H7.332V6.66667C7.332 4.82572 5.83964 3.33333 3.9987 3.33333Z" fill="white"/>
</svg>
