<svg preserveAspectRatio="xMidYMid meet" width="100%" height="100%" viewBox="0 0 24 24" fill="none" xmlns="http://www.w3.org/2000/svg">
<g id="Code-S-Line Streamline Remix">
<path id="Vector 4 (Stroke)" d="M20.3333 1.33333C20.5174 1.33333 20.6667 1.48257 20.6667 1.66667V18.681C20.6667 18.8058 20.597 18.9201 20.4861 18.9773L20.0529 19.2007L12.1522 23.2552C12.0567 23.3043 11.9433 23.3043 11.8478 23.2552L3.94712 19.2007L3.51388 18.9773C3.403 18.9201 3.33333 18.8058 3.33333 18.681V1.66667C3.33333 1.48257 3.48257 1.33333 3.66667 1.33333H20.3333ZM5.5942 17.2996C5.5942 17.4246 5.66413 17.5391 5.77534 17.5961L11.8478 20.7126C11.9433 20.7617 12.0567 20.7617 12.1522 20.7126L18.2247 17.5961C18.3359 17.5391 18.4058 17.4246 18.4058 17.2996V3.92806C18.4058 3.74397 18.2566 3.59473 18.0725 3.59473H5.92754C5.74344 3.59473 5.5942 3.74397 5.5942 3.92806V17.2996Z" fill="#F5F5F5"/>
</g>
</svg>
