<svg preserveAspectRatio="xMidYMid meet" width="100%" height="100%" viewBox="0 0 24 24" fill="none" xmlns="http://www.w3.org/2000/svg">
<g id="terminal-fill">
<g id="Vector">
<path fill-rule="evenodd" clip-rule="evenodd" d="M10.6667 20.6666V19.3333C10.6668 18.9651 10.9652 18.6666 11.3334 18.6666H20.6667C21.0348 18.6667 21.3334 18.9652 21.3334 19.3333V20.6666C21.3334 21.0348 21.0349 21.3332 20.6667 21.3333H11.3334C10.9652 21.3333 10.6667 21.0348 10.6667 20.6666Z" fill="#F5F5F5"/>
<path d="M3.45742 4.92899C3.71776 4.66864 4.1401 4.66864 4.40045 4.92899L11.0001 11.5286C11.2603 11.7889 11.2603 12.211 11.0001 12.4713L4.40045 19.0712C4.1401 19.3316 3.71777 19.3316 3.45742 19.0712L2.51471 18.1282C2.25442 17.8678 2.25438 17.4458 2.51471 17.1855L7.70025 11.9999L2.51471 6.81473C2.25436 6.55438 2.25436 6.13204 2.51471 5.87169L3.45742 4.92899Z" fill="#F5F5F5"/>
</g>
</g>
</svg>
