<svg viewBox="0 0 241.434 57.6" fill="none" xmlns="http://www.w3.org/2000/svg">
<g id="GL Logo Black">
<path d="M185.914 50.0186V46.0838H190.406L192.092 41.986L183.433 22.2555H188.621L194.567 36.3031H194.73L200.482 22.2555H205.469L196.979 42.0863L193.652 50.0186H185.908H185.914Z" fill="var(--fill-0, white)"/>
<path d="M66.5035 29.0287C66.5035 20.3633 71.9671 14.6428 80.551 14.6428C87.7628 14.6428 92.462 18.5275 92.9319 24.1603H88.3204C87.5122 20.7894 84.9934 18.8658 82.556 18.8658H78.6713C74.6989 18.8658 71.1588 23.3458 71.1588 28.941C71.1588 34.5362 74.7866 38.9284 79.0159 38.9284H81.8793C85.0372 38.9284 87.5122 37.0487 88.5397 35.0437V31.4974H81.6663V27.7004H92.8066V36.4096C91.0961 39.7367 87.2553 43.1577 80.5134 43.1577C72.0172 43.1577 66.5097 37.951 66.5097 29.0287H66.5035Z" fill="var(--fill-0, white)"/>
<path d="M96.1399 32.4435C96.1399 25.9147 100.495 21.6854 106.854 21.6854C112.875 21.6854 116.885 25.357 116.885 32.6565V33.6841H100.62C101.046 36.7981 103.013 39.2354 105.958 39.2354H107.794C110.1 39.2354 111.591 37.8257 112.061 36.0337H116.503C115.946 40.1314 112.575 43.164 106.729 43.164C99.9808 43.164 96.1399 38.6402 96.1399 32.4497V32.4435ZM112.362 30.2693C112.149 27.4059 110.144 25.6139 107.963 25.6139H105.614C103.264 25.6139 101.384 27.4498 100.789 30.2693H112.362Z" fill="var(--fill-0, white)"/>
<path d="M120.1 21.6854H131.284C136.321 21.6854 139.266 24.5488 139.266 29.7994V42.5625H134.786V30.5638C134.786 27.6189 133.295 25.8708 131.159 25.8708H124.586V42.5625H120.106V21.6854H120.1Z" fill="var(--fill-0, white)"/>
<path d="M143.038 15.238H147.65V38.3332H157.838V42.5625H143.038V15.238Z" fill="var(--fill-0, white)"/>
<path d="M159.116 32.3996C159.116 26.0838 163.214 21.6854 169.066 21.6854C172.098 21.6854 174.573 23.0951 175.895 24.7179V22.2869H180.294V42.5625H175.895V39.6991C174.36 41.6602 172.136 43.1577 168.934 43.1577C163.044 43.1577 159.116 38.7592 159.116 32.3996ZM168.64 39.1477H171.328C173.846 39.1477 175.77 37.0111 175.77 34.2354V30.6891C175.77 28.0011 173.978 25.6954 171.328 25.6954H168.64C165.864 25.6954 163.602 28.6841 163.602 32.3996C163.602 36.1151 165.864 39.1477 168.64 39.1477Z" fill="var(--fill-0, white)"/>
<path d="M205.475 32.4435C205.475 25.9147 209.83 21.6854 216.19 21.6854C222.211 21.6854 226.221 25.357 226.221 32.6565V33.6841H209.955C210.381 36.7981 212.349 39.2354 215.294 39.2354H217.129C219.435 39.2354 220.926 37.8257 221.396 36.0337H225.839C225.281 40.1314 221.91 43.164 216.064 43.164C209.316 43.164 205.475 38.6402 205.475 32.4497V32.4435ZM221.697 30.2693C221.484 27.4059 219.479 25.6139 217.299 25.6139H214.949C212.599 25.6139 210.72 27.4498 210.124 30.2693H221.697Z" fill="var(--fill-0, white)"/>
<path d="M229.435 22.2869H241.434V26.5976H233.921V42.5625H229.441V22.2869H229.435Z" fill="var(--fill-0, white)"/>
<path d="M27.7317 20.2693L17.3683 42.055L27.1239 46.9296L0 57.6L27.7317 0V20.2693Z" fill="var(--fill-0, white)"/>
<path d="M33.5212 20.2693L43.8845 42.055L34.1289 46.9296L61.2529 57.6L33.5212 0V20.2693Z" fill="var(--fill-0, white)"/>
<path d="M30.4761 27.431L36.5475 39.4359L30.4761 42.4121L24.7305 39.4234L30.4761 27.431Z" fill="var(--fill-0, white)"/>
</g>
</svg>
