<svg viewBox="0 0 34.9994 31.869" fill="none" xmlns="http://www.w3.org/2000/svg">
<g id="GL Symbol White">
<path d="M15.7984 10.1531C15.7984 10.2272 15.7819 10.3003 15.7503 10.3672L9.91675 22.6834C9.80044 22.929 9.90152 23.2225 10.1444 23.3443L14.4424 25.5013C14.8285 25.6951 14.8037 26.2544 14.4018 26.4132L0.68539 31.8325C0.262552 31.9996 -0.145744 31.5614 0.0507862 31.1514L14.8475 0.284584C15.0775 -0.195267 15.7984 -0.0314167 15.7984 0.50072V10.1531Z" fill="var(--fill-0, #F5F5F5)" fill-opacity="0.9"/>
<path d="M19.201 10.1531C19.201 10.2272 19.2174 10.3003 19.2491 10.3672L25.0826 22.6834C25.1989 22.929 25.0979 23.2225 24.855 23.3443L20.557 25.5013C20.1708 25.6951 20.1957 26.2544 20.5976 26.4132L34.314 31.8325C34.7368 31.9996 35.1451 31.5614 34.9486 31.1514L20.1519 0.284584C19.9218 -0.195267 19.201 -0.0314169 19.201 0.50072V10.1531Z" fill="var(--fill-0, #F5F5F5)" fill-opacity="0.9"/>
<path d="M16.9722 15.4135C17.1511 15.0383 17.6831 15.0326 17.87 15.4039L20.7527 21.1285C20.8777 21.3768 20.7763 21.6793 20.527 21.802L17.6389 23.2239C17.4958 23.2943 17.3278 23.2923 17.1865 23.2185L14.4618 21.795C14.2233 21.6704 14.1262 21.3794 14.2421 21.1366L16.9722 15.4135Z" fill="var(--fill-0, #F5F5F5)" fill-opacity="0.9"/>
</g>
</svg>
