<svg preserveAspectRatio="none" width="100%" height="100%" overflow="visible" style="display: block;" viewBox="0 0 20 20" fill="none" xmlns="http://www.w3.org/2000/svg">
<g id="Icon">
<path id="Vector" d="M10.8321 1.66699L10.8316 2.73199L14.9988 4.12192L18.0258 3.1129L18.5528 4.69404L16.0266 5.53616L18.606 12.6294C17.6961 13.5771 16.4163 14.167 14.9988 14.167C13.5813 14.167 12.3015 13.5771 11.3916 12.6294L13.9699 5.53616L10.8316 4.48949V15.8337H14.1654V17.5003H5.83212V15.8337H9.16492V4.48949L6.0266 5.53616L8.606 12.6294C7.69607 13.5771 6.41631 14.167 4.99878 14.167C3.58125 14.167 2.30149 13.5771 1.3916 12.6294L3.96993 5.53616L1.44469 4.69404L1.97173 3.1129L4.99878 4.12192L9.16492 2.73199L9.16542 1.66699H10.8321ZM14.9988 7.58588L13.3667 12.0747C13.8567 12.3504 14.4149 12.5003 14.9988 12.5003C15.5827 12.5003 16.1409 12.3504 16.6308 12.0747L14.9988 7.58588ZM4.99878 7.58588L3.3667 12.0747C3.85663 12.3504 4.41493 12.5003 4.99878 12.5003C5.58263 12.5003 6.14093 12.3504 6.63086 12.0747L4.99878 7.58588Z" fill="var(--fill-0, white)"/>
</g>
</svg>
