<svg preserveAspectRatio="none" width="100%" height="100%" overflow="visible" style="display: block;" viewBox="0 0 20 20" fill="none" xmlns="http://www.w3.org/2000/svg">
<g id="Icon">
<path id="Vector" d="M11.25 1.66699C11.25 2.0372 11.0891 2.36982 10.8333 2.5987V4.16699H15C16.3807 4.16699 17.5 5.28628 17.5 6.66699V15.0003C17.5 16.3811 16.3807 17.5003 15 17.5003H5C3.61929 17.5003 2.5 16.3811 2.5 15.0003V6.66699C2.5 5.28628 3.61929 4.16699 5 4.16699H9.16667V2.5987C8.91092 2.36982 8.75 2.0372 8.75 1.66699C8.75 0.976634 9.30967 0.416992 10 0.416992C10.6903 0.416992 11.25 0.976634 11.25 1.66699ZM5 5.83366C4.53977 5.83366 4.16667 6.20676 4.16667 6.66699V15.0003C4.16667 15.4606 4.53977 15.8337 5 15.8337H15C15.4602 15.8337 15.8333 15.4606 15.8333 15.0003V6.66699C15.8333 6.20676 15.4602 5.83366 15 5.83366H10.8333H9.16667H5ZM1.66667 8.33366H0V13.3337H1.66667V8.33366ZM18.3333 8.33366H20V13.3337H18.3333V8.33366ZM7.5 12.0837C8.19036 12.0837 8.75 11.524 8.75 10.8337C8.75 10.1433 8.19036 9.58366 7.5 9.58366C6.80964 9.58366 6.25 10.1433 6.25 10.8337C6.25 11.524 6.80964 12.0837 7.5 12.0837ZM12.5 12.0837C13.1903 12.0837 13.75 11.524 13.75 10.8337C13.75 10.1433 13.1903 9.58366 12.5 9.58366C11.8097 9.58366 11.25 10.1433 11.25 10.8337C11.25 11.524 11.8097 12.0837 12.5 12.0837Z" fill="var(--fill-0, white)"/>
</g>
</svg>
