<svg preserveAspectRatio="none" width="100%" height="100%" overflow="visible" style="display: block;" viewBox="0 0 20 20" fill="none" xmlns="http://www.w3.org/2000/svg">
<g id="Icon">
<path id="Vector" d="M13.3328 1.66699V3.33366H12.4995V6.03608C12.4995 7.00075 12.7088 7.95393 13.1131 8.82983L16.6808 16.5598C16.9701 17.1867 16.6965 17.9293 16.0697 18.2186C15.9054 18.2944 15.7268 18.3337 15.5458 18.3337H4.45312C3.76277 18.3337 3.20312 17.774 3.20312 17.0837C3.20312 16.9027 3.24238 16.7241 3.31818 16.5598L6.88588 8.82983C7.29013 7.95393 7.49949 7.00075 7.49949 6.03608V3.33366H6.66616V1.66699H13.3328ZM11.1561 8.33466H8.84292C8.756 8.63733 8.65192 8.93541 8.53092 9.22733L8.39917 9.52824L5.10366 16.667H14.8945L11.5998 9.52824C11.4212 9.14124 11.273 8.74216 11.1561 8.33466ZM9.16617 6.03608C9.16617 6.24721 9.15817 6.45791 9.14217 6.66772H10.8568C10.8491 6.56684 10.8433 6.46576 10.8393 6.36453L10.8328 6.03608V3.33366H9.16617V6.03608Z" fill="var(--fill-0, white)"/>
</g>
</svg>
