<svg preserveAspectRatio="none" width="100%" height="100%" overflow="visible" style="display: block;" viewBox="0 0 20 20" fill="none" xmlns="http://www.w3.org/2000/svg">
<g id="Icon">
<path id="Vector" d="M14.1663 3.33301C16.9278 3.33301 19.1663 5.57158 19.1663 8.33301V11.6663C19.1663 14.4278 16.9278 16.6663 14.1663 16.6663H5.83301C3.07158 16.6663 0.833008 14.4278 0.833008 11.6663V8.33301C0.833008 5.57158 3.07158 3.33301 5.83301 3.33301H14.1663ZM14.1663 4.99967H5.83301C4.04784 4.99967 2.59044 6.40298 2.50376 8.16664L2.49967 8.33301V11.6663C2.49967 13.4515 3.90298 14.9089 5.66664 14.9956L5.83301 14.9997H14.1663C15.9515 14.9997 17.4089 13.5963 17.4956 11.8327L17.4997 11.6663V8.33301C17.4997 6.54784 16.0963 5.09044 14.3327 5.00376L14.1663 4.99967ZM8.33301 7.49967V9.16634H9.99967V10.833H8.33217L8.33301 12.4997H6.66634L6.66551 10.833H4.99967V9.16634H6.66634V7.49967H8.33301ZM14.9997 10.833V12.4997H13.333V10.833H14.9997ZM13.333 7.49967V9.16634H11.6663V7.49967H13.333Z" fill="var(--fill-0, white)"/>
</g>
</svg>
