<svg preserveAspectRatio="none" width="100%" height="100%" overflow="visible" style="display: block;" viewBox="0 0 20 20" fill="none" xmlns="http://www.w3.org/2000/svg">
<g id="Icon">
<path id="Vector" d="M3.67571 12.1048L6.51041 9.27008L8.86742 11.6272L11.4982 8.99642L10.0041 7.50234H14.1707V11.669L12.6767 10.1749L8.86742 13.9842L6.51041 11.6272L4.44862 13.6889C5.64298 15.4852 7.68527 16.669 10.0041 16.669C13.686 16.669 16.6707 13.6843 16.6707 10.0023C16.6707 6.32044 13.686 3.33568 10.0041 3.33568C6.32217 3.33568 3.3374 6.32044 3.3374 10.0023C3.3374 10.737 3.45623 11.4438 3.67571 12.1048ZM2.39407 13.4033L2.38563 13.3949L2.38885 13.3917C1.9273 12.3562 1.67073 11.2093 1.67073 10.0023C1.67073 5.39997 5.4017 1.66901 10.0041 1.66901C14.6064 1.66901 18.3374 5.39997 18.3374 10.0023C18.3374 14.6048 14.6064 18.3357 10.0041 18.3357C6.61312 18.3357 3.69522 16.3103 2.39407 13.4033Z" fill="var(--fill-0, white)"/>
</g>
</svg>
