<svg preserveAspectRatio="none" width="100%" height="100%" overflow="visible" style="display: block;" viewBox="0 0 20 20" fill="none" xmlns="http://www.w3.org/2000/svg">
<g id="Icon">
<path id="Vector" d="M5.83366 4.16634V1.66634C5.83366 1.20611 6.20676 0.833008 6.66699 0.833008H13.3337C13.7939 0.833008 14.167 1.20611 14.167 1.66634V4.16634H17.5003C17.9606 4.16634 18.3337 4.53944 18.3337 4.99967V16.6663C18.3337 17.1266 17.9606 17.4997 17.5003 17.4997H2.50033C2.04009 17.4997 1.66699 17.1266 1.66699 16.6663V4.99967C1.66699 4.53944 2.04009 4.16634 2.50033 4.16634H5.83366ZM3.33366 13.333V15.833H16.667V13.333H3.33366ZM3.33366 11.6663H16.667V5.83301H3.33366V11.6663ZM7.50033 2.49967V4.16634H12.5003V2.49967H7.50033ZM9.16699 9.16634H10.8337V10.833H9.16699V9.16634Z" fill="var(--fill-0, white)"/>
</g>
</svg>
